<?xml version="1.0" encoding="UTF-8" standalone="no"?>
<!-- Created with Inkscape (http://www.inkscape.org/) -->

<svg
   width="210mm"
   height="297mm"
   viewBox="0 0 210 297"
   version="1.1"
   id="svg1"
   xml:space="preserve"
   inkscape:version="1.3 (0e150ed6c4, 2023-07-21)"
   sodipodi:docname="sbs.svg"
   xmlns:inkscape="http://www.inkscape.org/namespaces/inkscape"
   xmlns:sodipodi="http://sodipodi.sourceforge.net/DTD/sodipodi-0.dtd"
   xmlns="http://www.w3.org/2000/svg"
   xmlns:svg="http://www.w3.org/2000/svg"><sodipodi:namedview
     id="namedview1"
     pagecolor="#ffffff"
     bordercolor="#000000"
     borderopacity="0.25"
     inkscape:showpageshadow="2"
     inkscape:pageopacity="0.0"
     inkscape:pagecheckerboard="0"
     inkscape:deskcolor="#d1d1d1"
     inkscape:document-units="mm"
     inkscape:zoom="0.72426347"
     inkscape:cx="455.6353"
     inkscape:cy="53.157451"
     inkscape:window-width="1920"
     inkscape:window-height="1009"
     inkscape:window-x="-8"
     inkscape:window-y="-8"
     inkscape:window-maximized="1"
     inkscape:current-layer="layer1" /><defs
     id="defs1" /><g
     inkscape:label="Réteg 1"
     inkscape:groupmode="layer"
     id="layer1"><rect
       style="fill:#ffffff;fill-opacity:1;stroke:#000000;stroke-width:3.89394;stroke-dasharray:none;stroke-opacity:1"
       id="rect1"
       width="168.08522"
       height="221.00189"
       x="23.907572"
       y="31.058094" /><path
       style="fill:#7d7d7d;fill-opacity:1;stroke-width:0.641799"
       d="m 29.960673,48.772445 c 0.450979,-1.476198 1.647363,-2.915984 2.887361,-3.474765 L 33.5389,44.986355 v -6.0004 -6.000401 h 1.528802 1.528803 v 6.000401 6.0004 l 0.661438,0.298063 c 0.818249,0.368735 1.906564,1.469759 2.399054,2.42709 l 0.371144,0.721441 h 5.65499 5.654984 l 1.721464,2.94668 1.721465,2.946668 2.046959,1.283616 2.046955,1.283628 -0.94989,0.607219 -0.949893,0.607232 0.408635,0.636959 c 0.224744,0.350345 1.184123,1.954674 2.131944,3.565187 l 1.723315,2.928218 h 7.779255 7.779256 l 4.919113,-8.360266 4.919109,-8.360266 9.961681,-0.04383 9.961687,-0.04383 0.39136,-0.783076 c 0.77192,-1.544581 2.91548,-2.948763 4.50147,-2.948763 1.56381,0 3.4015,1.019959 4.37026,2.425573 0.33641,0.488135 0.61168,0.983274 0.61168,1.100288 0,0.167545 1.36288,0.203308 6.41247,0.168279 l 6.41247,-0.04445 0.0331,-2.1219 0.0331,-2.121899 18.94961,-0.04322 18.94958,-0.04323 v 2.207497 2.20751 h 3.80486 3.80484 l 0.37115,-0.721443 c 0.4925,-0.95733 1.5808,-2.058355 2.39904,-2.427088 l 0.66145,-0.298065 v -6.000392 -6.000401 h 1.5288 1.52879 v 6.000401 6.000398 l 0.69088,0.311324 c 1.54367,0.695631 2.84405,2.566938 2.9971,4.312904 0.16146,1.842411 -1.10628,3.988579 -2.92587,4.953207 l -0.76211,0.404008 v 16.482843 16.482867 l 0.69088,0.311311 c 1.54367,0.695644 2.84405,2.566937 2.9971,4.312916 0.16223,1.851398 -1.16551,4.082942 -2.94014,4.94144 l -0.74784,0.361768 v 40.258699 40.2587 l 0.76211,0.40403 c 1.8299,0.9701 3.08747,3.10974 2.92389,4.97477 -0.15229,1.73643 -1.40523,3.54524 -2.97746,4.29842 l -0.70462,0.33754 -9.9e-4,16.49319 -0.002,16.49321 0.74783,0.36177 c 1.78487,0.86348 3.10252,3.08914 2.93816,4.96302 -0.15305,1.74517 -1.43673,3.58907 -2.98395,4.28631 l -0.70204,0.31636 v 9.48031 9.4803 h -1.5288 -1.52879 v -9.4803 -9.48031 l -0.68101,-0.30688 c -0.81124,-0.36558 -2.1285,-1.72287 -2.47399,-2.54918 l -0.24692,-0.59054 h -3.81972 -3.81971 v 2.20676 2.20678 l -18.98262,4e-5 -18.98263,7e-5 v -2.16438 -2.16439 l -6.37,-0.0398 -6.37002,-0.0397 -0.31177,0.67742 c -0.41331,0.898 -1.61129,2.0743 -2.61505,2.56772 -1.08843,0.53504 -2.84342,0.54727 -3.98262,0.0277 -1.05087,-0.47927 -2.18524,-1.5447 -2.66349,-2.50167 l -0.38675,-0.77388 -9.96049,-0.0438 -9.960476,-0.0438 -4.929395,-8.36194 -4.929396,-8.36193 -7.797496,0.044 -7.797503,0.044 -2.011514,3.39503 c -1.106329,1.86727 -2.013985,3.48395 -2.017009,3.59267 -0.0032,0.10872 0.382384,0.43612 0.856468,0.72764 l 0.861979,0.53001 -2.048971,1.30938 -2.048963,1.30936 -1.71731,2.92821 -1.717317,2.92823 h -5.671976 -5.671696 l -0.246907,0.59053 c -0.345488,0.82632 -1.662752,2.18361 -2.473984,2.54919 l -0.681,0.30687 v 9.48031 9.4803 H 35.068391 33.53959 v -9.4803 -9.48031 l -0.702033,-0.31635 c -1.54724,-0.69725 -2.830895,-2.54114 -2.983959,-4.28631 -0.164356,-1.87389 1.153276,-4.09954 2.938164,-4.963 L 33.53959,221.3791 V 138.17352 54.96766 l -0.762094,-0.404008 c -2.09884,-1.112681 -3.417197,-3.823851 -2.816135,-5.791345 z m 7.292614,172.965295 c 1.020757,0.5204 1.702705,1.17195 2.26063,2.15987 l 0.512356,0.90721 4.782522,-0.005 4.782522,-0.005 1.300783,-2.24498 1.300778,-2.24499 0.110415,-1.86725 c 0.06074,-1.027 0.151061,-2.08079 0.200734,-2.34175 l 0.09031,-0.47446 0.892596,0.50341 0.892596,0.50342 1.461056,-2.49036 c 1.916232,-3.26617 1.863017,-3.08447 0.903311,-3.08447 h -0.782568 v -3.05554 -3.05551 h 5.775471 5.775471 l -0.0019,-8.27539 -0.0019,-8.27539 -0.704619,-0.33757 c -0.928496,-0.44478 -1.992414,-1.5279 -2.517423,-2.56283 -0.575471,-1.13445 -0.583485,-2.82891 -0.0194,-4.09571 0.432,-0.97012 1.682134,-2.25232 2.641924,-2.70971 l 0.603388,-0.28754 v -11.49444 -11.49447 l 10.574209,-8.44177 c 5.815821,-4.64297 10.670608,-8.53097 10.788425,-8.64002 0.16763,-0.15517 -2.131841,-2.07352 -10.574211,-8.82156 L 67.512196,120.8834 V 109.39878 97.914131 l -0.762089,-0.40401 c -1.8299,-0.970101 -3.087474,-3.109767 -2.923902,-4.974767 0.153062,-1.745171 1.436723,-3.589077 2.983963,-4.286312 l 0.702028,-0.316355 v -8.292043 -8.292056 h -5.775473 -5.775469 v -3.055514 -3.05554 h 0.764397 c 0.420418,0 0.764405,-0.06 0.764405,-0.133445 0,-0.10297 -2.977128,-5.273284 -3.118473,-5.415742 -0.0176,-0.01775 -0.401088,0.197286 -0.85217,0.477864 -0.45108,0.280569 -0.864648,0.465657 -0.919034,0.411307 -0.05437,-0.05435 -0.169112,-1.109656 -0.254949,-2.34513 l -0.156064,-2.246126 -1.299061,-2.244974 -1.299059,-2.244987 -4.782521,-0.0036 -4.782522,-0.0036 -0.51548,0.912764 c -0.541073,0.958065 -1.416302,1.78784 -2.355629,2.233281 l -0.558659,0.264921 v 83.251713 83.25176 z M 71.250871,88.240386 c 0.811234,0.365563 2.128497,1.722862 2.473987,2.549172 l 0.246911,0.590544 h 16.293024 16.293027 l 0.38742,-0.77523 c 0.44017,-0.880745 1.5555,-1.978231 2.43754,-2.39856 l 0.59621,-0.284118 v -5.909876 -5.909864 h -5.32249 c -2.92739,0 -5.354356,-0.03147 -5.393285,-0.07003 -0.03892,-0.03845 -0.04629,-0.718124 -0.01627,-1.510335 l 0.05448,-1.440373 6.081975,-0.05987 c 3.34508,-0.03293 8.88159,-0.03293 12.30336,-4.8e-5 l 6.2214,0.05988 v 1.510383 1.510397 h -5.43574 -5.43572 l 0.002,5.898868 9.9e-4,5.898869 0.70462,0.33755 c 0.9011,0.431668 2.06168,1.590311 2.46197,2.457857 l 0.31178,0.675736 6.32755,0.0049 6.32753,0.0049 v 1.52777 1.527769 h -6.3494 -6.34939 l -0.22666,0.551695 c -0.30722,0.747863 -1.61565,2.123038 -2.40085,2.52335 l -0.64118,0.326885 -9.3e-4,12.515723 -9e-4,12.51572 -9.49971,7.55395 c -5.224831,4.15466 -9.501865,7.63032 -9.504516,7.72369 -0.0025,0.0933 4.27174,3.56903 9.498646,7.72371 l 9.50347,7.55393 0.002,12.51483 0.002,12.51481 0.53631,0.27716 c 0.83939,0.43377 2.098,1.69774 2.43565,2.44605 l 0.30711,0.68055 h 6.34422 6.34419 v 1.52775 1.52777 l -6.32754,0.005 -6.32754,0.005 -0.31014,0.67228 c -0.4137,0.89679 -1.57235,2.06442 -2.45108,2.47007 l -0.71228,0.32881 -0.005,5.89887 -0.005,5.89887 h 5.43575 5.43573 v 1.51159 1.5116 l -6.15767,0.0585 c -3.38672,0.0322 -8.94774,0.0319 -12.35781,-6.2e-4 l -6.200161,-0.0591 0.0281,-1.46856 0.028,-1.46857 5.365251,-0.0448 5.36525,-0.0449 v -5.91313 -5.91314 l -0.66142,-0.29807 c -0.81826,-0.36873 -1.90658,-1.46974 -2.39907,-2.42709 l -0.36992,-0.72198 H 90.25976 73.971975 l -0.246913,0.59054 c -0.345488,0.82631 -1.662751,2.18361 -2.473986,2.54919 l -0.680998,0.30687 v 8.29205 8.29204 h 5.690538 5.69054 v 3.05553 3.05554 h -0.778555 c -0.428206,0 -0.753072,0.0611 -0.721936,0.13586 0.03115,0.0748 1.844361,3.16847 4.029375,6.87495 l 3.972745,6.73906 h 9.060175 9.06018 l 0.28244,-0.5517 c 0.52122,-1.0181 1.2958,-1.84488 2.21308,-2.36222 l 0.91053,-0.51352 v -5.9251 -5.9251 l -5.39327,3.7e-4 -5.393274,4.2e-4 0.05448,-1.52816 0.05448,-1.52816 h 12.303124 12.3033 v 1.52776 1.52777 h -5.43574 -5.43575 v 5.90987 5.90987 l 0.60339,0.28753 c 0.87249,0.41578 2.18228,1.70048 2.53847,2.48983 l 0.30708,0.68054 h 6.4377 6.43769 l -0.0279,-2.16434 -0.0279,-2.16432 18.95953,-0.0432 18.95952,-0.0432 v 2.2075 2.2075 h 3.80579 3.80579 l 0.51235,-0.90722 c 0.55792,-0.98792 1.23987,-1.63947 2.26064,-2.15986 l 0.65676,-0.33484 v -16.52166 -16.52155 l -0.68098,-0.30688 c -0.81125,-0.36557 -2.1285,-1.72286 -2.47399,-2.54919 l -0.24691,-0.59052 h -3.81973 -3.81972 v 2.20751 2.2075 l -18.94481,-0.0432 -18.94482,-0.0432 v -5.85643 -5.85642 l 18.94482,-0.0432 18.94481,-0.0432 v 2.20752 2.2075 h 3.81854 3.81856 l 0.33507,-0.65633 c 0.52075,-1.02006 1.17275,-1.70155 2.16133,-2.25911 l 0.90783,-0.51199 V 138.13947 97.847647 l -0.55864,-0.26492 c -0.93931,-0.445429 -1.81455,-1.275205 -2.35563,-2.233271 l -0.51547,-0.912762 h -3.80579 -3.80579 v 2.207508 2.207509 l -18.94276,-0.04322 -18.94278,-0.04323 -0.0399,-5.898906 -0.0399,-5.898906 18.98261,3.6e-5 18.98263,3.8e-5 v 2.206772 2.206763 h 3.81976 3.81971 l 0.24693,-0.590531 c 0.34548,-0.826322 1.66274,-2.183621 2.47399,-2.549184 l 0.68098,-0.306879 V 71.417729 54.900702 l -0.55865,-0.26493 c -0.93917,-0.44543 -1.81442,-1.275205 -2.35549,-2.233271 l -0.51548,-0.912763 h -3.80579 -3.80579 v 2.207508 2.207497 l -18.95342,-0.04322 -18.95345,-0.04322 0.004,-2.164337 0.004,-2.164338 h -6.41972 -6.41973 l -0.30188,0.669014 c -0.38736,0.8584 -1.61859,2.088818 -2.47758,2.475905 l -0.66949,0.301676 v 5.915532 5.915521 h 5.43576 5.43573 v 1.52777 1.527758 H 111.60594 99.303064 l -0.055,-1.457809 c -0.03023,-0.801785 -0.02316,-1.489288 0.01588,-1.527758 0.03892,-0.03845 2.465896,-0.07003 5.393276,-0.07003 h 5.3225 V 60.829354 54.8915 l -0.65678,-0.334782 c -1.02075,-0.520397 -1.70271,-1.171952 -2.26064,-2.159867 l -0.51234,-0.90723 h -9.042225 -9.042211 l -3.978858,6.736798 c -2.188372,3.705245 -4.004335,6.79896 -4.035478,6.874934 -0.03115,0.07591 0.293728,0.138146 0.721933,0.138146 h 0.778555 v 3.055528 3.055527 H 76.26114 70.570602 v 8.292055 8.292043 z m 9.749426,39.486484 c 5.736738,4.58636 10.486331,8.34251 10.55466,8.34702 0.06833,0.005 4.23874,-3.27029 9.267573,-7.27735 l 9.14333,-7.28554 0.006,-11.83672 0.006,-11.836723 -0.65677,-0.334831 c -1.02077,-0.520398 -1.70271,-1.171952 -2.26064,-2.159868 l -0.51235,-0.90723 H 90.274406 73.999614 l -0.512348,0.90723 c -0.557926,0.987916 -1.239882,1.63947 -2.260631,2.159868 l -0.656789,0.334831 v 10.775243 10.77523 z m -9.522581,51.21538 c 0.988584,0.55754 1.640583,1.23904 2.161334,2.2591 l 0.335063,0.65632 h 16.299404 16.299403 l 0.28244,-0.55169 c 0.51405,-1.00409 1.27403,-1.82066 2.2132,-2.37796 l 0.92725,-0.55024 -0.0106,-11.77508 -0.0106,-11.77507 -0.37993,-0.30073 c -0.20898,-0.16543 -4.35173,-3.47681 -9.20612,-7.35861 -7.612858,-6.08766 -8.862113,-7.02701 -9.087872,-6.83341 -0.143953,0.12343 -4.867248,3.90269 -10.496211,8.39835 l -10.234481,8.17391 v 10.76155 10.76153 z m 76.763774,-126.13732 15.8401,-0.04334 0.0466,-2.843343 0.0466,-2.843329 h -15.88675 -15.88666 v 2.886648 2.886648 z m 0.0425,42.818959 h 15.88256 v -2.800904 -2.800906 h -15.88253 -15.88255 v 2.800906 2.800904 z m 0,90.647341 h 15.88256 v -2.79919 -2.79916 l -15.88258,-0.044 -15.88255,-0.044 1e-5,2.84335 1e-5,2.84334 z m 0,42.94714 h 15.88256 v -2.8009 -2.8009 h -15.88253 -15.88255 v 2.8009 2.8009 z"
       id="path1" /><rect
       style="fill:#ffffff;fill-opacity:0.851016;stroke:#000000;stroke-width:0.690615;stroke-dasharray:none"
       id="rect2"
       width="144.83022"
       height="171.28854"
       x="35.062767"
       y="52.519943" /><path
       sodipodi:type="star"
       style="fill:#000000;fill-opacity:1;stroke:#000000;stroke-width:0;stroke-dasharray:none"
       id="path2"
       inkscape:flatsided="true"
       sodipodi:sides="3"
       sodipodi:cx="87.310722"
       sodipodi:cy="125.28315"
       sodipodi:r1="23.967749"
       sodipodi:r2="11.983875"
       sodipodi:arg1="0.53117762"
       sodipodi:arg2="1.5783752"
       inkscape:rounded="0"
       inkscape:randomized="0"
       d="M 107.97598,137.42399 66.463816,137.10937 87.492368,101.31609 Z"
       inkscape:transform-center-x="0.075254485"
       inkscape:transform-center-y="-2.5997254"
       transform="matrix(0.82857233,0,0,0.43965445,36.133796,100.72783)" /><rect
       style="fill:#ffffff;fill-opacity:0.997743;stroke:#000000;stroke-width:10.5606;stroke-dasharray:none"
       id="rect3"
       width="121.73106"
       height="68.814392"
       x="46.593826"
       y="78.089317" /><path
       id="rect4"
       style="fill:#7d7d7d;fill-opacity:1;stroke:#000000;stroke-width:0.79375;stroke-dasharray:none"
       d="m 78.269806,112.88388 a 12.78663,12.78663 0 0 0 -2.000395,0.15761 12.78663,12.78663 0 0 0 -1.950785,0.46819 12.78663,12.78663 0 0 0 -1.854151,0.76791 12.78663,12.78663 0 0 0 -1.71049,1.04852 12.78663,12.78663 0 0 0 -1.526005,1.30276 12.78663,12.78663 0 0 0 -0.180867,0.21187 c 0.100496,0.0377 0.08245,0.0307 0.183968,0.0687 3.98814,1.49573 8.729335,3.27144 11.740885,4.39043 0.188222,0.0699 0.367598,0.14642 0.538469,0.22893 0.170869,0.0825 0.333424,0.17112 0.487308,0.2651 0.153885,0.094 0.299403,0.19329 0.436666,0.29766 0.137263,0.10436 0.26605,0.21346 0.387057,0.32711 0.121006,0.11365 0.233882,0.23162 0.338997,0.35346 0.105115,0.12185 0.202383,0.24778 0.291972,0.37673 0.08959,0.12895 0.171552,0.2614 0.24598,0.39635 0.07443,0.13496 0.14139,0.27251 0.201021,0.41238 0.05963,0.13988 0.111897,0.2816 0.157096,0.4253 0.0452,0.14369 0.08359,0.28921 0.114722,0.43563 0.03113,0.14643 0.05492,0.29379 0.07235,0.44183 0.01743,0.14806 0.02846,0.29686 0.03256,0.44546 0.0041,0.1486 0.0016,0.2974 -0.0072,0.44545 -0.0089,0.14804 -0.02451,0.29543 -0.04599,0.44183 -0.02148,0.1464 -0.04896,0.29145 -0.08268,0.43512 -0.03372,0.14366 -0.07326,0.28598 -0.118856,0.42581 -0.0456,0.13983 -0.0974,0.27747 -0.154512,0.41238 -0.05711,0.1349 -0.119845,0.26695 -0.188102,0.39584 -0.06826,0.12888 -0.142138,0.25443 -0.221175,0.3762 -0.07904,0.12178 -0.163243,0.2399 -0.252698,0.35347 -0.08946,0.11357 -0.184197,0.22285 -0.283704,0.32711 -0.09951,0.10427 -0.203449,0.20327 -0.312642,0.29714 -0.109193,0.0939 -0.223584,0.1822 -0.342098,0.26458 -0.118515,0.0824 -0.241499,0.15912 -0.36897,0.22893 -0.127471,0.0698 -0.259263,0.133 -0.395325,0.18914 -0.136062,0.0561 -0.276357,0.10488 -0.420646,0.14624 -0.144288,0.0414 -0.292784,0.0753 -0.444934,0.10077 -0.15215,0.0255 -0.308026,0.0426 -0.467672,0.0512 -0.159645,0.009 -0.322599,0.008 -0.489375,-10e-4 -0.166778,-0.009 -0.33702,-0.0282 -0.510564,-0.0568 -0.173542,-0.0286 -0.350771,-0.0669 -0.530717,-0.11575 -0.179944,-0.0489 -0.362822,-0.10809 -0.548803,-0.17829 -2.975698,-1.12318 -7.71691,-2.89885 -11.714014,-4.39353 -0.485495,-0.18154 -0.421518,-0.15759 -0.880566,-0.32918 a 12.78663,12.78663 0 0 0 -0.01189,0.14832 12.78663,12.78663 0 0 0 0.157613,2.00039 12.78663,12.78663 0 0 0 0.468189,1.95079 12.78663,12.78663 0 0 0 0.767911,1.85363 12.78663,12.78663 0 0 0 1.048515,1.71101 12.78663,12.78663 0 0 0 1.302763,1.52548 12.78663,12.78663 0 0 0 1.526005,1.30328 12.78663,12.78663 0 0 0 1.71049,1.04852 12.78663,12.78663 0 0 0 1.854151,0.76739 12.78663,12.78663 0 0 0 1.950785,0.46871 12.78663,12.78663 0 0 0 2.000395,0.15761 12.78663,12.78663 0 0 0 1.999877,-0.15761 12.78663,12.78663 0 0 0 1.951303,-0.46871 12.78663,12.78663 0 0 0 1.853633,-0.76739 12.78663,12.78663 0 0 0 1.711007,-1.04852 12.78663,12.78663 0 0 0 1.525488,-1.30328 12.78663,12.78663 0 0 0 1.30328,-1.52548 12.78663,12.78663 0 0 0 1.047998,-1.71101 12.78663,12.78663 0 0 0 0.345198,-0.74776 h 42.747778 a 9.428525,9.428525 0 0 0 7.76852,4.11293 9.428525,9.428525 0 0 0 9.42836,-9.42837 9.428525,9.428525 0 0 0 -9.42836,-9.42836 9.428525,9.428525 0 0 0 -8.23619,4.88807 H 90.117144 a 12.78663,12.78663 0 0 0 -0.166398,-0.40204 12.78663,12.78663 0 0 0 -0.288354,-0.60461 12.78663,12.78663 0 0 0 -0.319361,-0.58808 12.78663,12.78663 0 0 0 -0.349849,-0.57051 12.78663,12.78663 0 0 0 -0.378788,-0.5519 12.78663,12.78663 0 0 0 -0.407727,-0.53124 12.78663,12.78663 0 0 0 -0.434599,-0.50901 12.78663,12.78663 0 0 0 -0.460954,-0.48576 12.78663,12.78663 0 0 0 -0.485758,-0.46044 12.78663,12.78663 0 0 0 -0.509013,-0.43511 12.78663,12.78663 0 0 0 -0.530717,-0.40721 12.78663,12.78663 0 0 0 -0.551904,-0.37931 12.78663,12.78663 0 0 0 -0.570508,-0.34985 12.78663,12.78663 0 0 0 -0.588595,-0.31936 12.78663,12.78663 0 0 0 -0.604097,-0.28835 12.78663,12.78663 0 0 0 -0.618567,-0.2558 12.78663,12.78663 0 0 0 -0.630969,-0.22376 12.78663,12.78663 0 0 0 -0.641822,-0.19017 12.78663,12.78663 0 0 0 -0.651123,-0.15606 12.78663,12.78663 0 0 0 -0.658358,-0.12196 12.78663,12.78663 0 0 0 -0.663525,-0.0873 12.78663,12.78663 0 0 0 -0.667143,-0.0527 12.78663,12.78663 0 0 0 -0.669209,-0.0176 z" /><path
       sodipodi:type="star"
       style="fill:#646464;fill-opacity:1;stroke:#000000;stroke-width:0.79375;stroke-dasharray:none"
       id="path14"
       inkscape:flatsided="true"
       sodipodi:sides="6"
       sodipodi:cx="137.16566"
       sodipodi:cy="116.37125"
       sodipodi:r1="3.8768885"
       sodipodi:r2="3.3574839"
       sodipodi:arg1="1.047518"
       sodipodi:arg2="1.5711168"
       inkscape:rounded="0"
       inkscape:randomized="0"
       d="m 139.10303,119.72935 -3.87689,-0.001 -1.93736,-3.35811 1.93952,-3.35686 3.87688,0.001 1.93737,3.35811 z"
       inkscape:transform-center-x="1.7280714e-06"
       inkscape:transform-center-y="-1.4660945e-06"
       transform="translate(3.4872627,9.0188917)" /><path
       d="m 111.14032,100.9369 c -4e-5,-0.21981 -0.007,-0.43955 -0.0217,-0.65888 -0.0144,-0.21941 -0.0359,-0.438289 -0.0646,-0.656289 -0.0287,-0.217811 -0.0646,-0.434623 -0.10749,-0.65009 -0.0428,-0.215685 -0.0926,-0.429912 -0.14934,-0.642338 -0.057,-0.212185 -0.12096,-0.422448 -0.19172,-0.630452 -0.0706,-0.208148 -0.14798,-0.413931 -0.23203,-0.617017 -0.084,-0.203071 -0.17469,-0.403338 -0.27182,-0.60048 -0.0973,-0.197303 -0.20107,-0.391366 -0.31109,-0.581876 -0.10979,-0.190294 -0.22578,-0.376946 -0.34778,-0.559656 -0.12228,-0.182777 -0.25051,-0.361501 -0.38448,-0.535885 -0.13376,-0.174357 -0.27319,-0.344291 -0.41806,-0.509529 -0.14492,-0.165242 -0.29521,-0.325697 -0.45062,-0.481108 -0.15541,-0.155414 -0.31586,-0.305701 -0.4811,-0.450619 -0.16524,-0.144874 -0.33517,-0.284303 -0.50953,-0.418062 -0.17439,-0.133972 -0.35311,-0.262199 -0.53589,-0.384473 -0.18271,-0.121999 -0.36936,-0.237988 -0.55965,-0.347782 -0.19051,-0.110023 -0.38458,-0.213776 -0.58188,-0.311092 -0.19714,-0.09713 -0.39741,-0.187786 -0.60048,-0.271818 -0.20292,-0.08404 -0.40853,-0.161426 -0.6165,-0.232027 -0.20817,-0.07077 -0.41861,-0.134716 -0.63097,-0.19172 -0.21243,-0.05678 -0.42665,-0.106587 -0.64234,-0.149345 -0.21547,-0.04291 -0.43228,-0.07876 -0.65009,-0.107487 -0.218,-0.02869 -0.43688,-0.05023 -0.65629,-0.06459 -0.21933,-0.01442 -0.43907,-0.02166 -0.65887,-0.0217 -0.65984,7.9e-5 -1.318086,0.06499 -1.965243,0.193786 -0.647179,0.12868 -1.280159,0.320633 -1.889802,0.573092 -0.609754,0.252425 -1.19323,0.564153 -1.742017,0.930692 -0.548657,0.366712 -1.059954,0.786446 -1.526522,1.253154 -0.466528,0.466592 -0.886088,0.977888 -1.252637,1.526522 -0.366718,0.548765 -0.678619,1.132239 -0.931209,1.742012 -0.252459,0.609647 -0.444412,1.242623 -0.573092,1.889807 -0.1288,0.647158 -0.193707,1.3054 -0.193786,1.96525"
       style="fill:none;stroke:#000000;stroke-width:0.79375"
       id="path27"
       sodipodi:nodetypes="ccccccscccccscccccccccccccccccccc" /><path
       d="m 111.24625,100.9369 c 0.002,0.64329 0.0651,1.28494 0.18914,1.91616 0.12868,0.64718 0.32063,1.28016 0.57309,1.88981 0.25259,0.60977 0.56449,1.19325 0.93121,1.74201 0.36655,0.54863 0.78611,1.05993 1.25264,1.52652 0.46657,0.46671 0.97786,0.88645 1.52652,1.25316 0.54879,0.36654 1.13226,0.67827 1.74201,0.93069 0.60965,0.25246 1.24263,0.44441 1.88981,0.57309 0.64716,0.1288 1.3054,0.19371 1.96525,0.19379 0.2198,-4e-5 0.43955,-0.007 0.65888,-0.0217 0.21941,-0.0144 0.43829,-0.0359 0.65629,-0.0646 0.21798,-0.0287 0.43497,-0.0646 0.65061,-0.10749 0.21551,-0.0428 0.42957,-0.0926 0.64182,-0.14935 0.21236,-0.057 0.4228,-0.12094 0.63097,-0.19172 0.20815,-0.0706 0.41393,-0.14797 0.61701,-0.23202 0.20307,-0.084 0.40334,-0.17469 0.60048,-0.27182 0.19713,-0.0973 0.39102,-0.20108 0.58136,-0.31109 0.1903,-0.10979 0.37695,-0.22578 0.55966,-0.34778 0.18277,-0.12211 0.36149,-0.25016 0.53588,-0.38396 0.17437,-0.13393 0.3443,-0.27353 0.50953,-0.41858 0.16524,-0.14492 0.3257,-0.29521 0.48111,-0.45062 0.15541,-0.15541 0.3057,-0.31587 0.45062,-0.48111 0.14505,-0.16523 0.28465,-0.33516 0.41858,-0.50953 0.1338,-0.17439 0.26185,-0.35311 0.38395,-0.53588 0.122,-0.18271 0.23799,-0.36936 0.34779,-0.55966 0.11001,-0.19034 0.21376,-0.38423 0.31109,-0.58136 0.0971,-0.19714 0.18779,-0.39741 0.27182,-0.60048 0.0842,-0.20308 0.16178,-0.40886 0.23254,-0.61701 0.0706,-0.20819 0.13437,-0.41862 0.1912,-0.63097 0.057,-0.21242 0.10693,-0.42665 0.14986,-0.64234 0.0427,-0.21547 0.0784,-0.43229 0.10697,-0.65009 0.0287,-0.218 0.0502,-0.43688 0.0646,-0.65629 0.0129,-0.20301 0.0196,-0.40637 0.0202,-0.60978 h -5e-5"
       style="fill:none;stroke:#000000;stroke-width:0.79375"
       id="path25"
       sodipodi:nodetypes="ccccccccccscccscccccsccccccccccccc" /><text
       xml:space="preserve"
       style="font-size:16.9333px;line-height:0;font-family:Arial;-inkscape-font-specification:Arial;fill:none;fill-opacity:1;stroke:none"
       x="96.093468"
       y="102.80968"
       id="text27"><tspan
         sodipodi:role="line"
         id="tspan27"
         style="font-size:16.9333px;fill:#000000;fill-opacity:0.997743;stroke:none"
         x="96.093468"
         y="102.80968">+</tspan></text><text
       xml:space="preserve"
       style="font-size:16.9333px;line-height:0;font-family:Arial;-inkscape-font-specification:Arial;fill:#000000;fill-opacity:0.997743;stroke:none;stroke-width:0;stroke-dasharray:none"
       x="118.82524"
       y="109.52588"
       id="text28"><tspan
         sodipodi:role="line"
         id="tspan28"
         style="stroke:none;stroke-width:0"
         x="118.82524"
         y="109.52588">-</tspan></text><text
       xml:space="preserve"
       style="font-size:25.4px;line-height:0;font-family:Arial;-inkscape-font-specification:Arial;fill:#646464;fill-opacity:0.997743;stroke:none;stroke-width:0;stroke-dasharray:none;stroke-opacity:1"
       x="49.079994"
       y="197.35324"
       id="text29"><tspan
         sodipodi:role="line"
         id="tspan29"
         style="fill:#646464;fill-opacity:0.997743;stroke:none;stroke-width:0;stroke-opacity:1"
         x="49.079994"
         y="197.35324">ELEKTRA</tspan></text><text
       xml:space="preserve"
       style="font-size:25.4px;line-height:0;font-family:Arial;-inkscape-font-specification:Arial;fill:#000000;fill-opacity:0.997743;stroke:none;stroke-width:0;stroke-dasharray:none"
       x="50.371574"
       y="199.16145"
       id="text30"><tspan
         sodipodi:role="line"
         id="tspan30"
         style="stroke:none;stroke-width:0"
         x="50.371574"
         y="199.16145">ELEKTRA</tspan></text></g></svg>
