<?xml version="1.0" encoding="UTF-8" standalone="no"?>
<!-- Created with Inkscape (http://www.inkscape.org/) -->

<svg
   width="800"
   height="200"
   viewBox="0 0 211.66666 52.916666"
   version="1.1"
   id="svg1"
   inkscape:version="1.3 (0e150ed6c4, 2023-07-21)"
   sodipodi:docname="drawing.svg"
   xmlns:inkscape="http://www.inkscape.org/namespaces/inkscape"
   xmlns:sodipodi="http://sodipodi.sourceforge.net/DTD/sodipodi-0.dtd"
   xmlns="http://www.w3.org/2000/svg"
   xmlns:svg="http://www.w3.org/2000/svg">
  <sodipodi:namedview
     id="namedview1"
     pagecolor="#ffffff"
     bordercolor="#666666"
     borderopacity="1.0"
     inkscape:showpageshadow="2"
     inkscape:pageopacity="0.0"
     inkscape:pagecheckerboard="0"
     inkscape:deskcolor="#d1d1d1"
     inkscape:document-units="mm"
     inkscape:zoom="1.0318224"
     inkscape:cx="372.15708"
     inkscape:cy="207.88462"
     inkscape:window-width="1920"
     inkscape:window-height="1023"
     inkscape:window-x="1920"
     inkscape:window-y="0"
     inkscape:window-maximized="1"
     inkscape:current-layer="layer1" />
  <defs
     id="defs1">
    <rect
       x="97.541744"
       y="48.825943"
       width="603.0183"
       height="106.08157"
       id="rect2" />
  </defs>
  <g
     inkscape:label="Layer 1"
     inkscape:groupmode="layer"
     id="layer1">
    <path
       id="rect1"
       style="fill:#ffffff;stroke:#000000;stroke-linejoin:bevel;stroke-dasharray:4, 1"
       d="M 171.79727 2.7905273 C 170.88537 2.7905273 170.15137 3.5245151 170.15137 4.4364217 L 170.15137 5.2224202 L 203.87076 5.2224202 C 204.78267 5.2224202 205.51665 5.956408 205.51665 6.8683146 L 205.51665 20.849373 L 206.98013 20.849373 C 207.89204 20.849373 208.62603 20.115386 208.62603 19.203479 L 208.62603 4.4364217 C 208.62603 3.5245151 207.89204 2.7905273 206.98013 2.7905273 L 171.79727 2.7905273 z " />
    <path
       id="rect1-9"
       style="fill:#ffffff;stroke:#000000;stroke-linejoin:bevel;stroke-dasharray:4, 1"
       d="m 40.540444,49.771395 c 0.9119,0 1.6459,-0.733988 1.6459,-1.645894 V 47.339502 H 8.4669506 c -0.91191,0 -1.64589,-0.733988 -1.64589,-1.645894 V 31.712549 h -1.46348 c -0.91191,0 -1.6459,0.733987 -1.6459,1.645894 v 14.767058 c 0,0.911906 0.73399,1.645894 1.6459,1.645894 z" />
    <text
       xml:space="preserve"
       transform="matrix(0.26458333,0,0,0.26458333,5.7616371,8.410831)"
       id="text2"
       style="font-style:normal;font-weight:normal;font-size:53.3333px;line-height:1;font-family:sans-serif;white-space:pre;shape-inside:url(#rect2);fill:#000000;fill-opacity:1;stroke:none"><tspan
         x="97.541016"
         y="90.686157"
         id="tspan3"><tspan
           style="font-family:'DejaVu Serif';-inkscape-font-specification:'DejaVu Serif'"
           id="tspan1">Felsőoktatási GY.I.K. </tspan></tspan></text>
  </g>
</svg>
