<?xml version="1.0" encoding="UTF-8" standalone="no"?>
<!-- Created with Inkscape (http://www.inkscape.org/) -->

<svg
   width="210mm"
   height="297mm"
   viewBox="0 0 793.70081 1122.5197"
   version="1.1"
   id="svg1"
   inkscape:version="1.3 (0e150ed6c4, 2023-07-21)"
   sodipodi:docname="rajz.svg"
   inkscape:export-filename="rajz.png"
   inkscape:export-xdpi="96"
   inkscape:export-ydpi="96"
   xmlns:inkscape="http://www.inkscape.org/namespaces/inkscape"
   xmlns:sodipodi="http://sodipodi.sourceforge.net/DTD/sodipodi-0.dtd"
   xmlns="http://www.w3.org/2000/svg"
   xmlns:svg="http://www.w3.org/2000/svg">
  <sodipodi:namedview
     id="namedview1"
     pagecolor="#ffffff"
     bordercolor="#000000"
     borderopacity="0.25"
     inkscape:showpageshadow="2"
     inkscape:pageopacity="0.0"
     inkscape:pagecheckerboard="0"
     inkscape:deskcolor="#d1d1d1"
     inkscape:document-units="mm"
     inkscape:zoom="1"
     inkscape:cx="407"
     inkscape:cy="493.5"
     inkscape:window-width="1920"
     inkscape:window-height="1009"
     inkscape:window-x="-8"
     inkscape:window-y="-8"
     inkscape:window-maximized="1"
     inkscape:current-layer="layer1"
     showgrid="false" />
  <defs
     id="defs1">
    <rect
       x="335.85118"
       y="240.17264"
       width="187.45182"
       height="87.86804"
       id="rect11" />
  </defs>
  <g
     inkscape:label="Réteg 1"
     inkscape:groupmode="layer"
     id="layer1">
    <path
       id="rect1"
       style="fill:#964b00;fill-opacity:1;stroke:#000000;stroke-width:4.85213"
       d="m 198.20303,232.47268 h 445.82888 v 543.06751 c 0,0 -141.62121,102.08037 -222.91444,102.08037 -81.29323,0 -222.91444,-102.08037 -222.91444,-102.08037 z"
       sodipodi:nodetypes="cccscc" />
    <path
       id="path1"
       style="fill:#373737;fill-opacity:0.997743;stroke:#000000;stroke-width:3;stroke-dasharray:none"
       d="m 518.80447,237.32442 a 20.139006,5.2180201 66.687481 0 0 -0.62207,0.14652 20.139006,5.2180201 66.687481 0 0 3.36396,20.79897 20.139006,5.2180201 66.687481 0 0 6.08212,11.05006 7.603609,57.517735 0 0 0 -2.88417,44.96608 7.603609,57.517735 0 0 0 3.16146,46.61695 10.813397,63.867718 28.228912 0 0 -29.23762,44.12796 10.813397,63.867718 28.228912 0 0 -18.27557,40.19712 74.320019,90.334847 0 0 0 -7.19129,-10.51865 7.4153396,31.765553 0 0 0 2.76378,-24.67117 7.4153396,31.765553 0 0 0 -1.78232,-20.64463 12.913971,5.5685809 62.448738 0 0 -2.9316,-11.30403 12.913971,5.5685809 62.448738 0 0 -9.43514,-8.80137 12.913971,5.5685809 62.448738 0 0 -1.43753,0.37316 12.913971,5.5685809 62.448738 0 0 1.37915,14.29709 12.913971,5.5685809 62.448738 0 0 1.74948,2.84457 7.4153396,31.765553 0 0 0 -2.37338,23.23521 7.4153396,31.765553 0 0 0 0.71694,13.50584 74.320019,90.334847 0 0 0 -12.62214,-8.14101 4.5595102,14.160598 0 0 0 3.66313,-13.88096 4.5595102,14.160598 0 0 0 -3.54456,-13.8028 7.0483662,3.316673 43.04609 0 0 0.14412,-0.1602 7.0483662,3.316673 43.04609 0 0 -3.187,-7.32634 7.0483662,3.316673 43.04609 0 0 -5.56403,-2.76837 7.0483662,3.316673 43.04609 0 0 -1.72759,0.67988 7.0483662,3.316673 43.04609 0 0 3.18883,7.32633 7.0483662,3.316673 43.04609 0 0 4.67561,2.65507 4.5595102,14.160598 0 0 0 -3.10309,13.39643 4.5595102,14.160598 0 0 0 2.66708,12.85331 74.320019,90.334847 0 0 0 -25.42854,-5.76338 74.320019,90.334847 0 0 0 -23.34157,4.99559 4.5595102,14.160598 0 0 0 1.45577,-10.36823 4.5595102,14.160598 0 0 0 -2.50107,-12.62277 3.2776185,7.1323511 37.041659 0 0 4.9456,-3.73546 3.2776185,7.1323511 37.041659 0 0 1.95197,-7.80889 3.2776185,7.1323511 37.041659 0 0 -6.84103,3.41505 3.2776185,7.1323511 37.041659 0 0 -2.52297,6.66794 4.5595102,14.160598 0 0 0 -4.15204,14.08413 4.5595102,14.160598 0 0 0 2.35696,12.38248 74.320019,90.334847 0 0 0 -12.89578,8.46923 7.4153396,31.765553 0 0 0 0.61478,-12.65598 7.4153396,31.765553 0 0 0 -1.9757,-21.58239 5.5685809,12.913971 27.551262 0 0 4.27063,-5.88256 5.5685809,12.913971 27.551262 0 0 1.37915,-14.29904 5.5685809,12.913971 27.551262 0 0 -10.87266,8.42821 5.5685809,12.913971 27.551262 0 0 -0.85923,1.73878 7.4153396,31.765553 0 0 0 -6.77171,31.597 7.4153396,31.765553 0 0 0 2.68533,24.41133 74.320019,90.334847 0 0 0 -6.1405,9.25267 63.867718,10.813397 61.771088 0 0 -17.5112,-37.99728 63.867718,10.813397 61.771088 0 0 -28.54804,-43.36797 7.603609,57.517735 0 0 0 2.43357,-42.0883 7.603609,57.517735 0 0 0 -2.86776,-44.98953 5.2180201,20.139006 23.312519 0 0 6.06571,-11.02662 5.2180201,20.139006 23.312519 0 0 3.36396,-20.797 5.2180201,20.139006 23.312519 0 0 -0.62207,-0.14849 5.2180201,20.139006 23.312519 0 0 -12.09128,16.27618 5.2180201,20.139006 23.312519 0 0 -1.29707,3.19232 7.603609,57.517735 0 0 0 -0.15506,-0.0234 7.603609,57.517735 0 0 0 -7.60357,57.51658 7.603609,57.517735 0 0 0 1.60536,35.17811 63.867718,10.813397 61.771088 0 0 21.28744,61.67206 63.867718,10.813397 61.771088 0 0 27.98252,42.65292 74.320019,90.334847 0 0 0 -1.81697,6.36316 59.507032,10.612466 21.378353 0 0 -38.03609,-18.15758 59.507032,10.612466 21.378353 0 0 -46.53174,-13.35736 43.662728,8.4185637 76.028852 0 0 -5.21012,-33.46277 43.662728,8.4185637 76.028852 0 0 -12.54734,-34.37905 5.4809034,21.752497 0 0 0 1.22591,-13.70707 5.4809034,21.752497 0 0 0 -5.48012,-21.75236 5.4809034,21.752497 0 0 0 -5.48194,21.75236 5.4809034,21.752497 0 0 0 1.15112,13.2714 43.662728,8.4185637 76.028852 0 0 4.9383,39.46255 43.662728,8.4185637 76.028852 0 0 9.98608,29.52413 59.507032,10.612466 21.378353 0 0 -0.91032,1.09602 59.507032,10.612466 21.378353 0 0 52.02462,31.66733 59.507032,10.612466 21.378353 0 0 41.19026,12.52314 74.320019,90.334847 0 0 0 -1.45577,14.94767 10.352534,57.743016 84.624625 0 0 -39.97894,0.83813 10.352534,57.743016 84.624625 0 0 -45.31677,8.35201 37.372024,9.5020183 61.905921 0 0 -10.86902,-27.90062 37.372024,9.5020183 61.905921 0 0 -16.4969,-23.40127 24.123484,7.7524869 80.80513 0 0 -0.42323,-17.91727 24.123484,7.7524869 80.80513 0 0 -11.53853,-22.36192 24.123484,7.7524869 80.80513 0 0 -3.70145,25.2397 24.123484,7.7524869 80.80513 0 0 4.60446,15.60606 37.372024,9.5020183 61.905921 0 0 11.36158,32.84736 37.372024,9.5020183 61.905921 0 0 16.50238,23.43058 10.352534,57.743016 84.624625 0 0 -0.76985,1.81106 10.352534,57.743016 84.624625 0 0 58.33295,4.93111 10.352534,57.743016 84.624625 0 0 39.3587,-6.5468 74.320019,90.334847 0 0 0 4.24508,19.22234 9.7651819,56.827129 47.938536 0 0 -36.38148,27.30865 9.7651819,56.827129 47.938536 0 0 -32.29875,34.7776 10.013912,90.288208 9.3329451 0 0 -24.05852,87.08173 10.013912,90.288208 9.3329451 0 0 -4.8252,90.94613 10.013912,90.288208 9.3329451 0 0 1.26058,-0.41418 32.615481,8.1914214 61.899826 0 0 5.78294,12.31996 32.615481,8.1914214 61.899826 0 0 22.45498,24.38984 32.615481,8.1914214 61.899826 0 0 -8.49564,-33.02124 32.615481,8.1914214 61.899826 0 0 -12.62032,-18.60692 10.013912,90.288208 9.3329451 0 0 16.1284,-71.89768 10.013912,90.288208 9.3329451 0 0 7.68565,-80.50757 9.7651819,56.827129 47.938536 0 0 41.06074,-29.65893 9.7651819,56.827129 47.938536 0 0 28.9877,-30.34665 74.320019,90.334847 0 0 0 19.27344,27.2227 94.837817,132.32834 0 0 0 -47.69743,114.79088 94.837817,132.32834 0 0 0 94.83666,132.32916 94.837817,132.32834 0 0 0 94.83848,-132.32916 94.837817,132.32834 0 0 0 -50.07631,-116.6254 74.320019,90.334847 0 0 0 17.65898,-27.47862 56.827129,9.7651819 42.061464 0 0 28.17954,29.32681 56.827129,9.7651819 42.061464 0 0 41.07351,29.6648 90.288208,10.013912 80.667055 0 0 7.67106,80.50172 90.288208,10.013912 80.667055 0 0 16.13022,71.89766 8.1914214,32.615481 28.100174 0 0 -12.62214,18.60498 8.1914214,32.615481 28.100174 0 0 -8.49564,33.02319 8.1914214,32.615481 28.100174 0 0 22.4568,-24.38985 8.1914214,32.615481 28.100174 0 0 5.79571,-12.31605 90.288208,10.013912 80.667055 0 0 1.24599,0.41028 90.288208,10.013912 80.667055 0 0 -4.82521,-90.94809 90.288208,10.013912 80.667055 0 0 -24.04756,-87.07587 56.827129,9.7651819 42.061464 0 0 -32.3097,-34.78346 56.827129,9.7651819 42.061464 0 0 -35.46569,-26.84368 74.320019,90.334847 0 0 0 3.67955,-16.93652 57.743016,10.352534 5.3753748 0 0 40.58643,6.90824 57.743016,10.352534 5.3753748 0 0 58.33477,-4.93111 57.743016,10.352534 5.3753748 0 0 -0.71876,-1.86185 9.5020183,37.372024 28.094079 0 0 16.45129,-23.37979 9.5020183,37.372024 28.094079 0 0 11.39625,-32.91965 7.7524869,24.123484 9.1948699 0 0 4.56979,-15.53377 7.7524869,24.123484 9.1948699 0 0 -3.70145,-25.2397 7.7524869,24.123484 9.1948699 0 0 -11.54034,22.36192 7.7524869,24.123484 9.1948699 0 0 -0.42142,17.91727 9.5020183,37.372024 28.094079 0 0 -16.4969,23.40127 9.5020183,37.372024 28.094079 0 0 -10.84347,27.885 57.743016,10.352534 5.3753748 0 0 -45.3423,-8.33639 57.743016,10.352534 5.3753748 0 0 -41.30703,-0.72677 74.320019,90.334847 0 0 0 -1.55244,-15.74087 10.612466,59.507032 68.621647 0 0 45.43534,-13.22061 10.612466,59.507032 68.621647 0 0 52.02278,-31.66927 10.612466,59.507032 68.621647 0 0 -1.70933,-1.45745 8.4185637,43.662728 13.971148 0 0 10.14113,-29.85237 8.4185637,43.662728 13.971148 0 0 4.9529,-39.53482 5.4809034,21.752497 0 0 0 1.13652,-13.20107 5.4809034,21.752497 0 0 0 -5.48194,-21.75236 5.4809034,21.752497 0 0 0 -5.48012,21.75236 5.4809034,21.752497 0 0 0 1.23321,13.69339 8.4185637,43.662728 13.971148 0 0 -12.55464,34.39468 8.4185637,43.662728 13.971148 0 0 -5.2156,34.24815 10.612466,59.507032 68.621647 0 0 -45.88229,13.26163 10.612466,59.507032 68.621647 0 0 -41.89625,20.60751 74.320019,90.334847 0 0 0 -2.35696,-8.10585 10.813397,63.867718 28.228912 0 0 29.15918,-44.04981 10.813397,63.867718 28.228912 0 0 21.09224,-61.91237 10.813397,63.867718 28.228912 0 0 -0.41411,-0.086 7.603609,57.517735 0 0 0 2.17636,-40.14048 7.603609,57.517735 0 0 0 -7.60358,-57.51657 7.603609,57.517735 0 0 0 -0.12952,0.0586 20.139006,5.2180201 66.687481 0 0 -1.32077,-3.2275 20.139006,5.2180201 66.687481 0 0 -12.09311,-16.27617 z" />
    <path
       id="path2"
       style="fill:#c86432;fill-opacity:0.99774301;stroke:#000000;stroke-width:3"
       d="M 316.56055 286.86915 C 312.52613 292.90594 308.04826 300.88643 303.19727 310.56641 A 7.603609 57.517735 0 0 0 302.96485 321.64649 A 7.603609 57.517735 0 0 0 303.47266 341.16602 C 307.69476 334.85033 312.60289 326.77542 318.08399 317.20704 A 7.603609 57.517735 0 0 0 316.56055 286.86915 z M 525.7129 292.72657 A 7.603609 57.517735 0 0 0 524.18947 323.06446 C 529.67057 332.63284 534.5787 340.70775 538.80079 347.02345 A 7.603609 57.517735 0 0 0 539.30861 327.50391 A 7.603609 57.517735 0 0 0 539.07618 316.42384 C 534.2252 306.74386 529.74733 298.76336 525.7129 292.72657 z M 254.24219 377.61915 C 251.47681 386.62689 249.37398 393.17618 245.67383 405.47071 A 43.662728 8.4185637 76.028852 0 0 246.05274 407.18165 A 43.662728 8.4185637 76.028852 0 0 253.18751 429.87306 C 256.37983 421.48032 259.56197 413.0174 262.75391 404.84376 A 43.662728 8.4185637 76.028852 0 0 262.2461 402.53321 A 43.662728 8.4185637 76.028852 0 0 254.24219 377.61915 z M 588.03126 383.47657 A 8.4185637 43.662728 13.971148 0 0 580.02736 408.39063 A 8.4185637 43.662728 13.971148 0 0 579.51954 410.70118 C 582.71149 418.87482 585.89362 427.33774 589.08595 435.73048 A 8.4185637 43.662728 13.971148 0 0 596.22072 413.03907 A 8.4185637 43.662728 13.971148 0 0 596.59962 411.32813 C 592.89948 399.03361 590.79665 392.48431 588.03126 383.47657 z M 507.42775 391.64259 A 10.813397 63.867718 28.228912 0 0 499.41993 405.69923 A 10.813397 63.867718 28.228912 0 0 495.51954 413.29884 C 497.10281 424.41387 498.55911 434.56865 500.22462 446.05079 A 10.813397 63.867718 28.228912 0 0 513.2129 425.28126 C 511.395 415.05788 509.47018 403.88424 507.42775 391.64259 z M 336.2793 393.04493 C 334.23687 405.28658 332.31205 416.46022 330.49415 426.6836 A 63.867718 10.813397 61.771088 0 0 343.48243 447.45314 C 345.14794 435.971 346.60424 425.81621 348.18751 414.70118 A 63.867718 10.813397 61.771088 0 0 344.28712 407.10157 A 63.867718 10.813397 61.771088 0 0 336.2793 393.04493 z M 234.40821 443.21876 C 231.9551 451.43 229.27491 460.39514 226.48438 469.76173 A 37.372024 9.5020183 61.905921 0 0 232.78321 484.584 C 235.43387 477.32261 238.11257 470.03779 240.83399 462.68751 A 37.372024 9.5020183 61.905921 0 0 234.22461 454.82814 A 24.123484 7.7524869 80.80513 0 0 234.40821 443.21876 z M 607.86525 449.07618 A 7.7524869 24.123484 9.19487 0 0 608.04884 460.68556 A 9.5020183 37.372024 28.094079 0 0 601.43947 468.54493 C 604.16088 475.89522 606.83959 483.18004 609.49025 490.44142 A 9.5020183 37.372024 28.094079 0 0 615.78908 475.61915 C 612.99855 466.25256 610.31836 457.28742 607.86525 449.07618 z M 518.29103 452.72267 A 10.612466 59.507032 68.621647 0 0 502.32618 460.20118 C 503.21518 466.27856 504.11814 472.24791 505.01954 478.3379 A 10.612466 59.507032 68.621647 0 0 522.33204 473.21681 C 521.06357 467.03877 519.71397 460.16838 518.29103 452.72267 z M 325.41602 454.12501 C 323.99308 461.57072 322.64348 468.44112 321.37501 474.61915 A 59.507032 10.612466 21.378353 0 0 338.68751 479.74025 C 339.58891 473.65025 340.49187 467.6809 341.38087 461.60353 A 59.507032 10.612466 21.378353 0 0 325.41602 454.12501 z M 508.66993 495.07228 A 57.743016 10.352534 5.375375 0 0 507.51173 495.1172 C 508.44045 501.31657 509.33138 507.52046 510.26368 513.65236 A 57.743016 10.352534 5.375375 0 0 532.37892 516.74415 C 530.84864 511.12646 529.12405 504.20174 527.17189 495.70118 A 57.743016 10.352534 5.375375 0 0 508.66993 495.07228 z M 335.03712 496.47462 A 10.352534 57.743016 84.624625 0 0 316.53516 497.10353 C 314.58301 505.60408 312.85841 512.5288 311.32813 518.1465 A 10.352534 57.743016 84.624625 0 0 333.44337 515.0547 C 334.37567 508.92281 335.2666 502.71892 336.19532 496.51954 A 10.352534 57.743016 84.624625 0 0 335.03712 496.47462 z M 515.28322 546.28908 C 516.87621 556.43798 518.45661 566.45081 520.01368 576.00001 A 56.827129 9.7651819 42.061464 0 0 545.7129 595.7422 C 545.47027 586.56539 545.21428 579.50625 544.94142 573.59376 A 56.827129 9.7651819 42.061464 0 0 527.89064 556.99611 A 56.827129 9.7651819 42.061464 0 0 515.28322 546.28908 z M 328.42384 547.69142 A 9.7651819 56.827129 47.938536 0 0 315.81641 558.39845 A 9.7651819 56.827129 47.938536 0 0 298.76563 574.99611 C 298.49277 580.90859 298.23678 587.96773 297.99415 597.14455 A 9.7651819 56.827129 47.938536 0 0 323.69337 577.40236 C 325.25045 567.85316 326.83084 557.84032 328.42384 547.69142 z M 583.09962 683.39845 C 575.71819 685.61781 569.18134 686.45945 563.44337 686.51955 A 90.288208 10.013912 80.667055 0 0 569.07814 715.98049 C 574.95845 710.84894 580.56356 703.50241 585.1133 696.65431 A 90.288208 10.013912 80.667055 0 0 583.09962 683.39845 z M 258.68555 685.35158 A 10.013912 90.288208 9.3329451 0 0 256.67188 698.60744 C 261.22162 705.45553 266.82672 712.80207 272.70704 717.93361 A 10.013912 90.288208 9.3329451 0 0 278.3418 688.47267 C 272.60384 688.41257 266.06699 687.57094 258.68555 685.35158 z " />
    <path
       style="fill:#c86432;fill-opacity:1"
       d="m 422.43367,800.90017 c -2.00854,-0.49233 -4.76385,-2.27955 -6.8395,-4.43642 -1.76778,-1.83695 -2.87347,-3.43591 -4.17148,-6.03248 -1.17917,-2.35882 -1.30338,-2.44654 -3.95248,-2.79119 -2.50308,-0.32565 -4.96552,-1.43241 -6.42332,-2.88701 -0.77599,-0.77428 -1.57299,-1.90249 -1.71405,-2.42636 -0.15869,-0.58932 0.0132,-1.13596 0.48093,-1.52954 0.64587,-0.54346 0.90125,-0.43897 2.328,0.95248 1.87099,1.82471 2.57773,2.3086 4.1603,2.84848 1.11546,0.38053 2.66859,0.42804 3.81509,0.11669 0.39889,-0.10832 1.04524,-0.22616 1.43632,-0.26185 0.65373,-0.0597 0.73266,-0.0416 0.97918,0.22369 0.28343,0.30505 0.47146,0.91948 0.47602,1.55546 0.0109,1.52014 2.41635,5.98357 4.3502,8.07195 1.87662,2.02658 5.36659,3.71587 7.23774,3.50337 0.79917,-0.0908 1.24085,-0.28368 2.37102,-1.03568 2.4659,-1.64075 4.84057,-4.34709 6.21418,-7.08212 0.6257,-1.24583 0.90756,-2.07746 1.12638,-3.32331 0.3971,-2.26089 0.69831,-2.45224 2.81401,-1.78779 1.50395,0.47233 2.12766,0.50684 3.37846,0.18694 1.66804,-0.42661 2.82257,-1.14823 4.63638,-2.89789 0.63723,-0.61469 1.29376,-1.15154 1.45894,-1.193 0.39631,-0.0995 1.07258,0.13163 1.28889,0.44045 0.86726,1.2382 -1.29431,3.96582 -4.36606,5.50938 -1.24829,0.62727 -2.5398,0.98656 -4.04887,1.12639 -1.62658,0.15071 -1.96681,0.24645 -2.36951,0.66678 -0.16986,0.1773 -0.61959,1.0144 -0.9994,1.86022 -0.86705,1.93091 -1.313,2.72902 -2.1589,3.86374 -2.12748,2.85387 -6.5582,6.18221 -8.99426,6.75645 -0.88565,0.20878 -1.66859,0.20945 -2.51421,0.002 z m 2.25428,-6.00879 c -0.0341,-0.0552 -0.12449,-0.56952 -0.20084,-1.14294 -0.18597,-1.39678 -0.0545,-1.73037 1.23923,-3.14336 2.47318,-2.70126 3.26685,-4.2087 3.49934,-6.64641 0.15437,-1.61846 0.3045,-2.09412 0.69337,-2.19683 0.45762,-0.12086 1.223,0.0604 1.5517,0.3674 0.53995,0.50438 0.66587,0.88311 0.66374,1.99643 -0.005,2.62218 -1.70371,6.06989 -4.21915,8.56329 -1.00879,0.99994 -3.09197,2.42154 -3.22739,2.20242 z m -3.36323,-0.76022 c -1.0547,-0.79778 -3.07853,-2.8953 -3.88417,-4.0256 -1.30352,-1.82882 -2.13275,-3.78691 -2.3515,-5.55272 -0.19193,-1.54934 0.36233,-2.51758 1.6004,-2.79576 0.56755,-0.12752 1.00074,-0.0323 1.15374,0.25358 0.063,0.11776 0.18756,0.8023 0.27674,1.52121 0.38349,3.09138 0.89341,4.12875 3.62431,7.37323 0.8132,0.96613 1.09429,1.57985 1.07972,2.35741 -0.0138,0.73743 -0.29793,1.37701 -0.61167,1.37701 -0.11851,0 -0.51792,-0.22876 -0.88757,-0.50836 z m 1.31517,-11.60948 c -1.81742,-0.37895 -4.05507,-1.57841 -5.58215,-2.99223 -0.97151,-0.89945 -1.5184,-1.67002 -1.5184,-2.13943 0,-0.46573 0.49804,-0.97534 1.21558,-1.24381 0.89141,-0.33351 1.15608,-0.30984 1.42185,0.1272 0.24241,0.39861 1.8839,1.92203 2.62254,2.43391 0.86962,0.60265 1.7152,0.87386 2.73383,0.87686 1.12036,0.003 1.83219,-0.19375 2.77975,-0.76948 0.70173,-0.42636 2.09452,-1.54941 2.87356,-2.31704 0.38784,-0.38216 0.40788,-0.38774 1.14576,-0.31883 0.95483,0.0892 1.2939,0.29953 1.2939,0.80279 0,0.66714 -0.5587,1.56585 -1.66076,2.67147 -2.41194,2.41972 -4.86717,3.38117 -7.32546,2.86859 z m -11.2483,-1.44248 c -0.74604,-0.12619 -1.20516,-0.39436 -1.59388,-0.93096 -0.46331,-0.63958 -0.6124,-1.1595 -0.55601,-1.93899 0.10544,-1.45772 1.34425,-3.0829 3.1817,-4.17407 1.76869,-1.05033 5.87308,-2.84013 7.42031,-3.23578 0.85848,-0.21952 1.03152,-0.21913 1.21567,0.003 0.36046,0.43432 -0.48312,1.33045 -2.67131,2.83773 -0.58723,0.4045 -1.81509,1.24879 -2.72856,1.87619 -1.9722,1.35457 -2.99281,2.2549 -2.99281,2.6401 0,0.34653 0.10068,0.40047 0.89347,0.47869 0.82568,0.0815 1.3615,0.34708 1.89791,0.94082 0.72786,0.80565 0.73663,1.39869 0.0226,1.52534 -0.60315,0.10699 -3.41633,0.092 -4.08906,-0.0218 z m 20.46563,0.0151 c -0.67195,-0.1191 -0.62367,-0.71062 0.12956,-1.58727 0.62426,-0.72656 0.77911,-0.79668 1.97398,-0.89381 1.07016,-0.087 1.23589,-0.18972 1.00429,-0.62247 -0.17739,-0.33146 -1.5254,-1.33354 -4.24703,-3.15713 -2.43186,-1.62944 -3.54444,-2.49457 -4.07018,-3.16495 -0.31786,-0.4053 -0.41824,-1.04499 -0.16375,-1.04357 0.29494,0.002 2.13436,0.47644 3.18862,0.82304 3.63925,1.19642 6.30112,2.81503 7.43211,4.51926 1.17246,1.76671 1.08821,4.29997 -0.15961,4.79924 -0.91379,0.36563 -3.81845,0.55268 -5.08799,0.32766 z m 11.27215,-0.43667 c -0.1918,-0.23269 -0.79645,-1.40903 -1.34368,-2.6141 l -0.99495,-2.19103 -0.0937,-18.49978 c -0.0515,-10.17488 -0.0961,-28.97055 -0.0991,-41.76814 -0.007,-29.50109 0.1738,-44.6974 0.53559,-45.05919 0.0523,-0.0523 0.5668,0.38233 1.14323,0.96595 l 1.04805,1.06114 0.12798,27.17514 c 0.24877,52.82298 0.40954,69.72945 0.70652,74.29615 0.13424,2.06431 0.28663,2.88591 0.72278,3.89703 0.53616,1.24293 0.3495,2.29584 -0.50754,2.86301 -0.6017,0.39818 -0.83222,0.37482 -1.24519,-0.12618 z m -39.94238,0.0971 c -0.18959,-0.11563 -0.51276,-0.40162 -0.71816,-0.63555 -0.53133,-0.60515 -0.50201,-1.08026 0.19448,-3.15194 0.41062,-1.22136 0.60233,-2.00776 0.69214,-2.83918 0.32296,-2.98982 0.36941,-8.89829 0.42709,-54.33445 l 0.0594,-46.75156 0.89343,-0.99166 c 1.12324,-1.24673 1.40244,-1.50379 1.69436,-1.56001 l 0.23366,-0.045 0.10031,21.33438 c 0.21997,46.78241 0.13176,68.8616 -0.30694,76.83371 -0.41602,7.55992 -1.18439,11.60669 -2.31481,12.19125 -0.40602,0.20996 -0.54018,0.20293 -0.95492,-0.05 z m 16.90341,-4.00914 c -0.8419,-1.26802 -0.83137,-1.36745 0.31106,-2.93768 1.11037,-1.52616 1.71909,-2.48084 2.63082,-4.12605 l 0.74516,-1.34462 0.54703,0.99991 c 0.72442,1.32416 1.62959,2.70872 2.64601,4.0474 1.41678,1.86598 1.47158,2.11202 0.72011,3.23316 -0.74326,1.10889 -0.80088,1.09375 -2.47714,-0.65078 -1.16446,-1.21189 -1.42573,-1.43063 -1.59841,-1.33821 -0.27844,0.14901 -1.32845,1.26735 -2.14698,2.28667 -0.36793,0.45819 -0.6786,0.83307 -0.69038,0.83307 -0.0118,0 -0.32106,-0.45129 -0.68728,-1.00287 z m -7.53861,-4.89112 c -0.83079,-0.90305 -1.3152,-1.58283 -1.7773,-2.49411 -1.36446,-2.69079 -1.76774,-7.01222 -1.02315,-10.96389 0.19917,-1.05702 0.57044,-2.00112 0.72348,-1.83976 0.20759,0.21888 0.48076,1.27419 1.04601,4.04088 0.91424,4.47492 1.28056,5.79409 2.22593,8.01588 0.40524,0.95241 0.39266,1.68072 -0.0481,2.78135 -0.19077,0.47643 -0.38467,0.92931 -0.4309,1.00641 -0.0565,0.0942 -0.29118,-0.085 -0.71602,-0.54676 z m 21.48599,0.23489 c -0.12527,-0.20539 -0.33786,-0.70353 -0.47242,-1.10698 -0.32664,-0.97939 -0.25274,-1.56494 0.4144,-3.28324 0.60539,-1.55925 1.27099,-3.83856 1.71271,-5.86509 0.27779,-1.27441 0.98948,-5.30478 0.98948,-5.60348 0,-0.28893 0.20724,0.12666 0.445,0.89236 0.65816,2.1196 0.87027,5.42618 0.54596,8.51079 -0.18457,1.7554 -0.30504,2.25401 -0.76427,3.16329 -0.57464,1.13778 -2.3266,3.6658 -2.54047,3.6658 -0.0564,0 -0.20511,-0.16805 -0.33039,-0.37345 z m -18.84316,-1.35588 c 0,-0.45757 1.34499,-2.35194 2.33941,-3.29499 3.29199,-3.12191 7.574,-3.65888 10.87246,-1.36341 0.84574,0.58857 2.64123,2.33191 3.13249,3.04149 0.42419,0.61272 0.71525,1.50007 0.54717,1.66816 -0.21441,0.21441 -1.15118,-0.14195 -3.73485,-1.42077 -2.93945,-1.45492 -3.60318,-1.66094 -5.13137,-1.59277 -1.01809,0.0454 -1.13583,0.0786 -2.28003,0.64363 -0.66358,0.32765 -1.7362,0.87691 -2.38359,1.22057 -1.12651,0.59799 -2.73647,1.2187 -3.161,1.2187 -0.11038,0 -0.20069,-0.0543 -0.20069,-0.12061 z m 0.42175,-7.52584 c -1.00786,-0.20035 -1.67433,-0.59628 -2.19292,-1.30274 -2.05967,-2.80582 -1.70656,-7.1038 1.08878,-13.25248 1.04308,-2.29439 2.07045,-4.12015 5.26845,-9.36267 0.39316,-0.64452 0.76555,-1.3555 0.82752,-1.57995 0.15002,-0.5433 0.42479,-0.52983 0.94533,0.0463 0.92288,1.02151 1.12334,1.91271 0.62559,2.78117 -0.15724,0.27435 -0.7647,1.32613 -1.34991,2.3373 -2.16463,3.74019 -3.99709,7.48733 -4.77151,9.75711 -0.44088,1.2922 -0.81775,3.38513 -0.93437,5.18901 -0.0954,1.47627 -0.0523,1.5111 1.20564,0.97439 1.54204,-0.65791 1.58304,-0.66231 2.38743,-0.25625 0.38851,0.19611 0.81487,0.4945 0.94747,0.66308 1.00197,1.27379 0.0361,3.4813 -1.75608,4.01352 -0.68363,0.20301 -1.24035,0.20111 -2.29142,-0.008 z m 13.6177,-0.14839 c -0.69649,-0.24904 -1.31384,-0.78938 -1.65211,-1.44602 -0.17858,-0.34666 -0.22098,-0.60479 -0.18378,-1.11901 0.0652,-0.90163 0.51308,-1.52762 1.41711,-1.98075 0.62931,-0.31544 0.69523,-0.32572 1.24924,-0.1949 0.32168,0.076 0.88276,0.27437 1.24684,0.44091 0.52868,0.24183 0.69063,0.27392 0.80434,0.15935 0.38351,-0.3864 -0.11188,-4.81796 -0.77879,-6.96669 -0.43216,-1.39238 -0.4025,-1.5971 0.33487,-2.31129 0.34111,-0.3304 0.78019,-0.68345 0.97572,-0.78457 0.33493,-0.1732 0.36667,-0.17082 0.54804,0.041 0.48945,0.57164 1.28128,3.08285 1.65595,5.25171 0.34663,2.00647 0.34631,4.41046 -7.5e-4,5.72952 -0.58489,2.22295 -1.80308,3.2509 -3.97153,3.35132 -0.81521,0.0377 -1.16351,0.002 -1.64515,-0.17058 z m -8.81125,-12.71423 c -1.80371,-0.39905 -2.1052,-0.8058 -1.49288,-2.01416 0.4878,-0.96262 0.55013,-0.98048 3.27576,-0.93864 3.27544,0.0503 4.75803,-0.22984 6.89248,-1.3022 3.97719,-1.99817 6.50464,-6.55168 6.08982,-10.97153 -0.16414,-1.74892 -0.46112,-2.64274 -1.74133,-5.24085 -0.93162,-1.89066 -1.02861,-2.45185 -0.5768,-3.33748 0.66916,-1.31165 1.14743,-1.14176 2.51777,0.89438 1.35991,2.02062 2.08009,3.77364 2.38712,5.81059 0.22365,1.48375 0.22096,4.49058 -0.005,5.88545 -0.44842,2.765 -1.66904,5.00286 -3.84709,7.05319 -2.51679,2.3692 -4.93123,3.60406 -8.14127,4.16385 -1.21431,0.21175 -4.39642,0.21021 -5.35833,-0.003 z m -7.58816,-4.79886 c -1.8537,-2.06028 -2.83061,-3.98848 -3.34525,-6.60278 -0.29181,-1.48233 -0.26562,-4.09833 0.0562,-5.61788 0.63277,-2.98739 1.83479,-5.39564 3.62982,-7.27237 2.13992,-2.23732 5.24786,-3.79589 8.62163,-4.32358 1.74596,-0.27308 4.29197,-0.19098 5.31761,0.17148 1.31223,0.46375 1.71299,1.15037 1.17732,2.0171 -0.45893,0.74256 -0.76636,0.80569 -3.73262,0.76649 -3.71219,-0.049 -5.04234,0.25512 -7.09841,1.62318 -1.18045,0.78544 -2.95066,2.59904 -3.67751,3.76764 -1.16616,1.87493 -1.62159,3.50836 -1.61432,5.78993 0.007,2.19592 0.28397,3.20948 1.6485,6.03254 0.56511,1.16916 1.05976,2.33771 1.09922,2.59677 0.0835,0.54807 -0.12588,1.04398 -0.59727,1.41478 -0.51514,0.40521 -0.87209,0.31788 -1.48497,-0.3633 z m 15.02609,-0.51708 c -0.91064,-1.16261 -7.32346,-10.99009 -9.36283,-14.34827 -1.37909,-2.27093 -1.49932,-2.52218 -1.34499,-2.81055 0.1622,-0.30307 1.62926,-1.25478 1.93426,-1.25478 0.27781,0 0.92483,0.90612 3.50056,4.90237 3.98938,6.18952 7.65949,12.16673 7.65949,12.4744 0,0.22536 -0.78664,0.88467 -1.46047,1.22406 -0.26607,0.13402 -0.50734,0.24367 -0.53614,0.24367 -0.0288,0 -0.20426,-0.1939 -0.38988,-0.4309 z m -2.53231,-11.20962 c -0.33541,-0.50672 -0.63793,-1.06178 -0.67227,-1.23347 -0.0921,-0.46037 0.22513,-1.07913 1.70631,-3.32844 1.77159,-2.69032 2.29166,-3.56662 3.20475,-5.3998 1.56315,-3.13832 2.43697,-6.24022 2.69503,-9.56684 0.12134,-1.56417 -0.27695,-1.738 -1.50996,-0.65903 -0.36065,0.3156 -0.73816,0.57362 -0.83893,0.57338 -0.53651,-10e-4 -2.06629,-1.43839 -2.36573,-2.22245 -0.43074,-1.12788 0.32712,-2.41577 1.73055,-2.94086 0.80395,-0.30079 1.54039,-0.3001 2.47257,0.002 1.83309,0.59474 2.82064,1.69074 3.27792,3.63788 0.27546,1.17293 0.1695,3.5918 -0.23459,5.35542 -0.38375,1.67485 -1.04764,3.6226 -1.78461,5.23577 -0.88487,1.93692 -5.31652,9.62076 -6.24572,10.82917 -0.61419,0.79876 -0.73499,0.77494 -1.43532,-0.28307 z m -11.19471,-11.08204 c -0.3023,-0.34292 -0.89054,-1.61065 -1.23082,-2.65255 -0.93228,-2.85461 -0.96669,-6.43711 -0.0827,-8.61256 0.58935,-1.45041 1.43757,-2.27177 2.71195,-2.62608 0.62232,-0.17302 0.82396,-0.18095 1.52872,-0.0601 1.45807,0.25003 2.83703,1.22455 3.00581,2.12422 0.13958,0.74399 -0.26355,1.54549 -1.24341,2.47221 -0.79342,0.75039 -1.08018,0.76823 -2.14827,0.13369 -0.98383,-0.58449 -1.20821,-0.58905 -1.44208,-0.0293 -0.23466,0.56162 -0.16163,1.35843 0.42666,4.65536 0.49994,2.80185 0.55858,3.72589 0.26487,4.17414 -0.38519,0.58788 -1.42756,0.83293 -1.79071,0.42098 z m 22.43681,-5.91547 c -0.002,-0.10941 -0.1338,-1.16004 -0.29306,-2.33474 -0.26411,-1.94812 -0.69437,-4.19528 -1.51695,-7.92273 -0.56016,-2.53832 -0.37266,-4.46602 0.52136,-5.36017 l 0.30429,-0.30433 0.60147,1.10866 c 1.34474,2.47867 1.64356,3.84822 1.64289,7.5297 -5.1e-4,2.81684 -0.12113,3.84094 -0.6907,5.86439 -0.36898,1.31083 -0.56272,1.79381 -0.5693,1.41922 z m -26.01494,-0.66287 c -0.16083,-0.40965 -0.78421,-3.44606 -0.95006,-4.62763 -0.22243,-1.58464 -0.15537,-4.52972 0.13272,-5.82876 0.83795,-3.7785 3.22503,-6.43587 6.55962,-7.30239 1.60796,-0.41784 4.30573,-0.18375 5.60087,0.48599 0.29516,0.15264 0.62836,0.17321 1.96762,0.12152 1.42106,-0.0549 1.77433,-0.1116 2.97839,-0.47838 1.70556,-0.51954 2.95567,-0.65342 3.28853,-0.35219 0.27454,0.24846 0.29188,0.63592 0.0512,1.14319 -0.29726,0.62642 -0.80211,1.03936 -1.68285,1.37649 -1.06618,0.40809 -2.13553,1.02559 -3.63155,2.09703 l -1.18313,0.84735 -1.14935,-0.86579 c -0.63214,-0.47618 -1.34071,-0.96326 -1.5746,-1.08238 -2.16869,-1.10457 -4.80602,-0.62626 -6.64261,1.20472 -1.26783,1.26396 -1.48456,1.97023 -2.97632,9.69916 -0.39643,2.05394 -0.75123,3.65687 -0.78845,3.56207 z m 11.09256,-8.1722 c -1.43789,-0.23908 -3.25824,-1.02556 -4.92604,-2.12828 -1.03816,-0.68641 -1.39269,-1.09327 -1.49339,-1.71382 -0.0601,-0.37013 -0.0165,-0.46263 0.43794,-0.92955 0.62948,-0.64678 1.06007,-0.87988 1.46221,-0.79155 0.16985,0.0373 0.69608,0.37648 1.1694,0.75372 1.03962,0.82859 2.09755,1.4008 3.10124,1.67737 0.94504,0.26041 3.64848,0.29251 4.59622,0.0546 2.58425,-0.64879 4.04578,-2.21716 5.6206,-6.03144 l 0.52684,-1.27605 0.90012,-0.45298 c 1.18349,-0.59558 1.27081,-0.54576 1.31859,0.75235 0.0452,1.22664 -0.19164,2.24823 -0.8424,3.63425 -0.67329,1.43401 -1.53536,2.6585 -2.64954,3.76346 -1.38596,1.37449 -3.11574,2.27859 -5.07782,2.65399 -0.92881,0.17771 -3.16902,0.19607 -4.14397,0.034 z m -8.93082,-9.87898 c -0.11517,-0.18635 0.0357,-1.30472 0.35244,-2.6129 1.10646,-4.56953 3.76078,-7.42195 7.84519,-8.43068 1.40697,-0.34748 3.90712,-0.34682 5.32517,0.001 2.42971,0.59664 4.03297,1.44354 5.47214,2.89056 0.69018,0.69395 0.6744,1.06199 -0.0787,1.83518 -0.49083,0.50392 -0.62754,0.58219 -1.01686,0.58219 -0.30379,0 -0.59748,-0.10257 -0.90476,-0.31599 -2.30058,-1.59784 -2.6718,-1.81624 -3.73963,-2.20018 -0.90668,-0.32599 -1.1933,-0.37288 -2.27914,-0.37288 -1.17183,0 -2.16332,0.23473 -3.20301,0.75832 -2.01284,1.01365 -3.51755,2.69108 -4.31539,4.81077 -0.73372,1.94931 -1.25657,2.58372 -2.42744,2.94536 -0.88086,0.27207 -0.92617,0.27686 -1.03,0.10885 z m 4.83284,-1.21418 c -0.48196,-0.13314 -0.54713,-0.28008 -0.48837,-1.10124 0.0365,-0.51009 0.12374,-0.85684 0.25095,-0.99741 0.10726,-0.11851 0.74749,-0.40523 1.42273,-0.63714 1.4194,-0.48749 2.00873,-0.79686 3.77463,-1.98149 l 1.28296,-0.86066 1.0726,0.93646 c 2.25427,1.96813 3.87257,2.28481 6.1476,1.203 1.60646,-0.7639 2.84461,-2.25265 3.69764,-4.44605 0.56458,-1.45169 0.80559,-2.56147 1.44921,-6.67311 0.63607,-4.06335 0.82051,-4.90014 1.0801,-4.90014 0.10633,0 0.12264,0.0442 0.4243,1.14905 0.81871,2.99865 0.9444,7.46182 0.28299,10.04794 -1.00246,3.91956 -3.9341,7.19296 -7.19979,8.0391 -1.56697,0.40601 -3.61874,0.18003 -5.26907,-0.58033 -0.57656,-0.26564 -0.84934,-0.31852 -1.66613,-0.32299 -0.91251,-0.005 -1.0673,0.0318 -2.35556,0.56018 -1.29431,0.53086 -1.44933,0.56746 -2.52792,0.59692 -0.63198,0.0173 -1.25247,0.003 -1.37887,-0.0321 z m -6.00638,-3.81858 c -0.5916,-0.57412 -1.52827,-2.45859 -1.86218,-3.74648 -0.5908,-2.27867 -0.8503,-5.7119 -0.59505,-7.87248 0.13145,-1.11271 0.50137,-2.70621 0.74458,-3.20742 0.44788,-0.92302 0.68555,-0.14722 1.63429,5.33462 0.52867,3.05465 0.75463,4.02912 1.33187,5.74372 0.55718,1.65504 0.55616,2.14351 -0.006,3.07176 -0.20363,0.33598 -0.46003,0.72992 -0.56978,0.87542 l -0.19954,0.26454 z m 4.57735,-8.22708 c -0.40677,-0.15102 -0.94868,-0.42153 -1.20424,-0.60114 -0.75534,-0.53088 -1.74153,-1.81043 -2.36019,-3.06232 -0.80126,-1.62136 -0.9642,-2.40642 -0.88534,-4.26574 0.11936,-2.81431 1.07252,-6.19366 3.09333,-10.9672 0.87209,-2.06004 3.3614,-7.07085 4.39856,-8.85399 1.22656,-2.10878 2.00644,-3.76464 2.00644,-4.26014 0,-0.35946 -0.0718,-0.49344 -0.41687,-0.77787 -1.22246,-1.00766 -8.76907,-4.73116 -14.46339,-7.13626 -3.24349,-1.36994 -4.44854,-1.69041 -6.77943,-1.80291 -2.04354,-0.0986 -3.28702,0.16601 -4.4979,0.95728 -0.35098,0.22935 -0.22444,0.55182 0.3796,0.96741 0.93853,0.64573 1.35507,1.60413 1.07112,2.4645 -0.32113,0.97305 -1.70139,2.00065 -2.69054,2.00311 -2.34546,0.006 -3.52406,-3.73562 -1.98539,-6.30257 0.73683,-1.22925 2.00651,-2.07904 3.81633,-2.55425 1.09869,-0.28849 3.69255,-0.34605 5.17074,-0.11475 4.34494,0.67987 8.83928,2.40544 15.74205,6.04404 5.36175,2.82629 6.29422,3.28595 6.59301,3.24994 0.3634,-0.0438 1.36831,-1.7707 3.63053,-6.23892 2.58002,-5.09594 4.56519,-9.53234 5.42452,-12.12253 l 0.40027,-1.20651 -0.0427,-2.70028 -0.0427,-2.70028 -0.42263,-0.89851 c -0.38713,-0.82305 -0.4485,-0.89543 -0.73069,-0.86179 -0.2537,0.0302 -0.40164,0.20557 -0.83848,0.99369 -0.29174,0.52633 -0.62304,1.00879 -0.73623,1.07214 -0.14828,0.083 -0.42119,0.0497 -0.97662,-0.11896 -1.49724,-0.45478 -2.41856,-1.33294 -2.51931,-2.40132 -0.0426,-0.45171 0.0137,-0.66793 0.33482,-1.28632 0.70763,-1.36266 1.9743,-2.03069 3.66487,-1.93282 2.31599,0.13407 4.16347,1.95124 4.9472,4.86603 0.37657,1.40055 0.43133,4.14789 0.11895,5.96842 -0.77167,4.49729 -2.89443,9.3173 -8.26263,18.76141 -0.72841,1.28146 -1.30422,2.34601 -1.27959,2.36567 0.53071,0.42352 3.35489,2.13894 5.5028,3.34243 7.27468,4.07603 13.62302,6.39757 17.52309,6.40805 1.23602,0.003 1.49223,-0.0332 2.47324,-0.35266 1.71615,-0.55885 1.69272,-0.49937 0.65587,-1.66474 -1.12729,-1.26703 -1.25754,-1.51742 -1.13383,-2.17962 0.11344,-0.60722 0.42912,-1.08217 1.04175,-1.56739 1.00132,-0.79306 1.88711,-0.9009 2.85247,-0.34728 1.61654,0.92708 2.24275,3.54063 1.30482,5.44583 -0.69581,1.41338 -2.36496,2.59478 -4.37914,3.0995 -1.36187,0.34125 -3.40235,0.47256 -4.9067,0.31575 -4.66677,-0.48645 -9.54814,-2.48607 -18.48684,-7.57301 -1.90158,-1.08218 -3.58877,-2.00056 -3.7493,-2.04085 -0.27442,-0.0689 -0.34665,0.0217 -1.20872,1.51567 -3.72115,6.4488 -6.82854,13.1399 -8.00336,17.23349 -0.87308,3.04224 -0.94289,4.67262 -0.285,6.65662 0.54177,1.63386 0.48363,1.60795 1.55026,0.69087 1.44331,-1.24095 2.02844,-1.44282 2.89198,-0.99772 1.31325,0.67691 1.96949,2.30288 1.41873,3.51521 -0.26238,0.57756 -1.31257,1.54692 -2.10221,1.94042 -0.7748,0.3861 -1.60161,0.39026 -2.61735,0.0132 z m 12.91958,0.0636 c -1.20814,-0.29622 -2.34048,-1.30538 -2.64671,-2.35879 -0.17705,-0.60903 -0.17575,-0.67955 0.0228,-1.23159 0.40903,-1.13746 1.66409,-2.16175 2.64881,-2.16175 0.38781,0 0.5152,0.0847 1.1816,0.78609 1.14323,1.20315 1.43138,1.27597 1.84452,0.46615 0.70039,-1.37288 0.82749,-4.1853 0.3006,-6.6515 -0.50621,-2.36941 -0.40519,-2.81448 0.79897,-3.52016 1.00489,-0.58891 1.31927,-0.19768 1.81483,2.25844 0.88823,4.40224 0.80745,6.96682 -0.29233,9.28036 -0.46014,0.96797 -1.71663,2.25129 -2.62805,2.68418 -1.03783,0.49292 -2.17868,0.66099 -3.045,0.44857 z m -58.83161,-8.72146 c -0.98614,-0.46676 -2.4236,-1.86221 -3.34684,-3.24902 -1.24255,-1.86645 -1.68322,-3.16067 -1.87082,-5.4945 -0.0717,-0.89143 -0.16671,-1.37872 -0.32044,-1.64285 -0.22941,-0.39413 -0.87224,-0.76438 -2.8237,-1.62636 -0.55431,-0.24484 -1.64017,-0.85712 -2.41301,-1.36061 -1.11405,-0.72579 -1.71493,-1.22857 -2.90032,-2.4268 -0.82233,-0.83124 -1.84177,-2.00257 -2.26542,-2.60295 -1.00442,-1.4234 -2.09609,-3.54628 -2.27492,-4.42386 -0.50265,-2.46653 0.95202,-5.78271 3.84838,-8.77312 1.83984,-1.89958 3.09833,-2.8098 6.61097,-4.7815 1.2699,-0.71281 2.14029,-1.36743 2.33878,-1.75899 0.0922,-0.1818 0.18358,-0.84458 0.21759,-1.57749 0.0707,-1.52455 0.39406,-2.59473 1.25629,-4.15844 0.68648,-1.24497 1.31108,-2.00985 2.5646,-3.14058 1.78915,-1.61389 2.3737,-1.81613 3.09691,-1.07146 0.30948,0.31866 0.4077,0.51675 0.4077,0.82222 0,0.50918 -0.29834,0.91365 -1.72586,2.33972 -1.18139,1.1802 -1.85189,2.08323 -2.12814,2.86621 -0.30785,0.87253 -0.41217,2.40914 -0.2747,4.04621 0.17381,2.06977 0.16317,2.71307 -0.0484,2.92461 -0.1128,0.1128 -0.53025,0.20357 -1.18708,0.25812 -1.07945,0.0897 -1.67659,0.29626 -3.49455,1.20903 -3.261,1.63731 -6.42238,4.55948 -7.73019,7.14528 -1.28571,2.54211 -0.60975,5.15865 2.05261,7.9454 2.19812,2.30081 5.67924,4.48558 7.91437,4.9671 1.40248,0.30214 2.58132,0.69835 2.65746,0.89318 0.0341,0.0873 -0.0176,0.95609 -0.11499,1.93067 -0.37107,3.71425 0.28585,5.6066 2.75656,7.94068 1.24613,1.17721 1.49179,1.51693 1.39007,1.92224 -0.0973,0.38768 -0.951,1.20439 -1.25882,1.20427 -0.13458,-5e-5 -0.55493,-0.14693 -0.93412,-0.32641 z m 105.21683,-0.19415 c -0.3677,-0.41773 -0.48048,-0.63984 -0.48048,-0.9463 0,-0.35657 0.14941,-0.55308 1.36368,-1.79358 2.18745,-2.2347 2.75334,-3.31987 2.85366,-5.47228 0.035,-0.75041 -0.008,-1.6626 -0.11299,-2.41302 -0.1873,-1.33541 -0.1505,-1.90963 0.13194,-2.05889 0.10317,-0.0545 0.69545,-0.23382 1.31619,-0.39846 3.08327,-0.81776 6.05826,-2.54563 8.60662,-4.99867 2.41975,-2.32925 3.56797,-4.42013 3.38752,-6.16855 -0.0837,-0.81062 -0.60687,-2.01293 -1.35211,-3.10712 -0.75827,-1.11331 -2.9296,-3.30346 -4.24433,-4.28111 -2.42318,-1.8019 -5.04529,-3.00113 -6.5662,-3.00308 -0.70858,-9.1e-4 -1.33724,-0.19907 -1.41569,-0.44624 -0.0367,-0.11546 0.0144,-0.74726 0.11345,-1.40402 0.25626,-1.69924 0.23587,-3.50567 -0.0521,-4.61988 -0.38132,-1.47525 -0.81514,-2.14712 -2.5064,-3.88177 -1.19345,-1.22407 -1.52321,-1.62953 -1.52321,-1.87292 0,-0.71045 0.69978,-1.44828 1.37359,-1.44828 1.3335,0 4.28836,3.07718 5.28466,5.50343 0.44766,1.09018 0.5732,1.68184 0.69476,3.2744 0.0593,0.77697 0.15636,1.54034 0.21568,1.69636 0.18896,0.49702 0.8407,0.94551 2.77896,1.91234 2.40983,1.20206 3.70121,2.12502 5.57923,3.9875 2.17439,2.15639 3.55733,4.13035 4.31783,6.16309 0.69842,1.86678 0.48878,2.99198 -1.06747,5.72962 -2.23886,3.93844 -4.43876,6.01609 -8.76759,8.28036 -0.87888,0.45972 -1.76431,0.98189 -1.96761,1.16039 -0.52231,0.4586 -0.82294,1.2468 -1.09594,2.87339 -0.25143,1.49808 -0.49629,2.33488 -1.0233,3.49719 -1.11474,2.45849 -3.26404,4.54549 -4.8673,4.7262 -0.47234,0.0532 -0.51612,0.0312 -0.97502,-0.4901 z m -3.23821,-2.59211 c -2.59641,-1.10175 -3.94073,-1.21631 -16.02931,-1.36603 -8.11464,-0.1005 -10.79577,-0.20775 -11.80405,-0.4722 -0.78562,-0.20605 -2.48348,-2.0075 -2.17902,-2.31196 0.26773,-0.26773 6.60425,-0.34857 17.2264,-0.21975 l 10.48238,0.12712 3.16265,1.46053 c 1.73945,0.80329 3.16264,1.49334 3.16264,1.53345 0,0.12044 -1.8067,1.48257 -2.12898,1.6051 -0.4798,0.18242 -0.73759,0.1339 -1.89271,-0.35626 z m -99.72643,-0.40111 c -0.32233,-0.35268 -0.58606,-0.73673 -0.58606,-0.85343 0,-0.54776 2.21693,-1.77025 4.05653,-2.2369 1.23189,-0.3125 2.96465,-0.56935 5.13591,-0.76131 0.8728,-0.0772 6.03467,-0.14887 13.15668,-0.18278 l 11.72036,-0.0558 -0.28367,0.32616 c -0.15601,0.17938 -0.80143,0.85615 -1.43426,1.50393 l -1.1506,1.17779 -3.90884,0.003 c -5.86698,0.005 -16.90571,0.20314 -18.73165,0.33688 -2.08478,0.15271 -3.04539,0.31203 -3.96424,0.6575 -0.75687,0.28457 -2.6791,0.72613 -3.16102,0.72613 -0.17273,0 -0.46435,-0.22022 -0.84914,-0.64124 z m 48.76585,-1.78312 c -1.81935,-0.14899 -2.79549,-0.4056 -3.24221,-0.85233 -0.44165,-0.44165 -0.46125,-0.66355 -0.13713,-1.5525 l 0.24019,-0.65874 3.46551,-0.0153 c 3.92437,-0.0173 5.51657,-0.14013 7.081,-0.54632 2.06632,-0.53649 4.25297,-1.79351 6.26639,-3.60233 1.32265,-1.18824 1.90116,-1.54211 2.38979,-1.46178 0.20237,0.0333 0.77358,0.24576 1.26936,0.47219 l 0.90142,0.41171 -0.34258,0.43247 c -0.58451,0.73789 -2.11153,2.24788 -2.95403,2.92108 -3.2669,2.61045 -7.06479,4.11253 -11.28157,4.46191 -1.52293,0.12618 -2.00833,0.12484 -3.65614,-0.0101 z m -9.53409,-4.14624 c -0.6538,-0.34461 -3.29862,-3.05067 -3.50274,-3.58384 -0.0515,-0.13448 -0.28393,-0.5289 -0.51654,-0.87649 -0.68623,-1.02543 -1.74743,-3.28736 -2.23721,-4.76858 -0.71953,-2.17605 -0.93593,-3.39713 -1.008,-5.68782 -0.0726,-2.3069 0.021,-3.10877 0.55908,-4.78929 l 0.37452,-1.16977 0.48033,-0.13448 c 0.55141,-0.15438 0.87127,-0.0802 1.36975,0.3175 l 0.35312,0.28177 0.0293,3.75256 c 0.0371,4.75125 0.17409,5.89121 0.93676,7.79588 0.72278,1.80507 1.69425,3.24521 4.07114,6.03522 0.7573,0.88893 0.84106,2.18628 0.1836,2.84374 -0.29225,0.29225 -0.51385,0.28892 -1.09312,-0.0164 z m 40.98911,-0.45049 c -0.98261,-0.1143 -1.90001,-0.34116 -2.90031,-0.7172 l -0.72491,-0.27252 1.48807,-0.47916 c 2.2067,-0.71057 4.07845,-1.1462 5.49849,-1.27972 2.48956,-0.23408 2.76581,-0.31196 6.27666,-1.76951 0.54505,-0.22628 1.23285,-0.44456 1.52843,-0.48508 0.92742,-0.12711 2.02033,0.3749 2.01857,0.9272 -0.004,1.15838 -3.6636,3.15499 -6.95102,3.79201 -1.98914,0.38545 -4.4126,0.49585 -6.23398,0.28398 z m 19.74828,-0.0548 c -2.44434,-0.65737 -4.36605,-2.89433 -5.81214,-6.76559 -0.32344,-0.86587 -1.55472,-5.08418 -1.55472,-5.32641 0,-0.0213 0.16447,0.0815 0.36548,0.22852 0.89537,0.6548 1.89362,1.85291 3.68538,4.42322 1.90342,2.73051 3.04997,4.20845 3.45346,4.45163 0.30025,0.18095 0.566,-0.19112 0.4168,-0.58356 -0.17712,-0.46585 -0.1224,-1.28207 0.11746,-1.75225 0.28496,-0.55856 1.17674,-1.34981 1.63467,-1.45039 0.48194,-0.10585 0.76563,0.20378 0.96564,1.05392 0.32282,1.37216 0.13634,3.44822 -0.40504,4.50942 -0.29182,0.57202 -0.92543,1.12029 -1.46916,1.27128 -0.53993,0.14994 -0.6327,0.14597 -1.39783,-0.0598 z m -99.12945,-0.21871 c -0.68241,-0.34006 -1.22441,-0.88562 -1.42879,-1.43817 -0.15388,-0.416 -0.31814,-5.17075 -0.17864,-5.17075 0.23994,0 2.14333,1.07762 2.4654,1.3958 0.37953,0.37495 0.38644,0.39904 0.3243,1.13106 -0.0349,0.41137 -0.0942,0.827 -0.13179,0.92361 -0.0376,0.0966 0.007,0.27758 0.0993,0.40217 0.161,0.21761 0.19401,0.19941 0.83991,-0.46292 0.36978,-0.37919 1.23733,-1.54261 1.92789,-2.58538 2.14799,-3.24353 3.9615,-5.50467 4.56979,-5.69773 0.91048,-0.28898 0.28128,2.04583 -1.59523,5.91945 -1.15708,2.38853 -1.9432,3.60625 -2.95473,4.5769 -1.34286,1.2886 -2.68308,1.63101 -3.93739,1.00596 z m 15.12063,0.16553 c -1.32443,-0.15903 -4.20065,-1.40458 -6.00088,-2.59869 -1.39995,-0.92861 -1.55042,-1.391 -0.61655,-1.89462 1.14251,-0.61613 1.82542,-0.53734 4.22709,0.48774 2.30466,0.98367 2.84258,1.14009 4.33369,1.26013 2.22861,0.17942 4.91949,0.77224 6.80398,1.49898 0.95652,0.36887 1.28869,0.62553 1.02248,0.79006 -0.66938,0.4137 -7.47691,0.73171 -9.76981,0.4564 z m 41.7354,-0.89985 c -0.72293,-0.19787 -1.34701,-1.14959 -3.81456,-5.81714 -0.83525,-1.57995 -1.69342,-3.1894 -1.90705,-3.57655 l -0.3884,-0.70391 0.4711,0.1623 c 2.41049,0.83049 4.88077,3.37482 6.40644,6.59849 0.91752,1.93869 1.02068,2.93832 0.32951,3.19297 -0.45918,0.16917 -0.82786,0.21751 -1.09704,0.14384 z m -33.17494,-1.55618 c -3.00481,-0.85956 -4.72575,-1.95178 -5.47577,-3.47529 -0.3281,-0.66646 -0.37354,-0.88147 -0.41888,-1.98194 -0.0864,-2.09705 0.34044,-2.93371 1.85692,-3.63981 1.09702,-0.51078 1.98276,-0.32259 2.83542,0.60244 1.13681,1.23329 1.07755,2.13438 -0.23301,3.54313 -0.39855,0.42842 -0.68946,0.8405 -0.66886,0.94748 0.0523,0.27171 0.93166,0.68908 1.93182,0.91692 1.35096,0.30775 4.18426,0.26538 5.74528,-0.0859 0.66358,-0.14933 1.46504,-0.27424 1.78103,-0.27758 l 0.57453,-0.006 0.38245,0.76126 c 0.21035,0.4187 0.41034,0.96914 0.44441,1.2232 0.072,0.53709 0.11174,0.51421 -1.3559,0.78136 -0.5306,0.0966 -1.66278,0.30344 -2.51596,0.45967 -1.96017,0.35895 -4.08511,0.45952 -4.88348,0.23113 z m -22.98199,-4.79247 c -2.02828,-2.21997 -2.78325,-3.3461 -3.31625,-4.94661 -0.57854,-1.73725 -0.39461,-3.92601 0.4763,-5.66771 0.74991,-1.49972 2.27228,-3.234 3.65879,-4.16808 1.08675,-0.73212 1.17342,-0.72996 1.68185,0.0421 0.32005,0.48598 0.43029,0.7735 0.43029,1.1222 0,0.44632 -0.0604,0.52685 -1.25894,1.67884 -1.08424,1.04213 -1.31421,1.32988 -1.65718,2.07366 -0.48799,1.05824 -0.81209,2.57101 -0.72715,3.394 0.14355,1.39079 0.97476,2.78391 2.63374,4.41415 0.73248,0.7198 1.12444,1.19122 1.12444,1.35241 0,0.21306 -1.44753,2.20045 -1.60957,2.20987 -0.0321,0.002 -0.67843,-0.67531 -1.43632,-1.50482 z m -6.90014,1.11951 c -2.99828,-0.79434 -4.98738,-2.1296 -7.85607,-5.2737 -0.79452,-0.87079 -1.45857,-1.62378 -1.47569,-1.6733 -0.0171,-0.0495 0.21216,-0.21153 0.50948,-0.36003 0.56242,-0.28088 1.92526,-0.44703 2.49464,-0.30412 0.15926,0.04 0.82232,0.62023 1.47346,1.28948 2.01539,2.07139 2.90452,2.5847 6.09103,3.51645 1.09296,0.31958 2.10504,0.60649 2.24906,0.63756 0.88735,0.19144 0.7323,1.66611 -0.22804,2.16881 -0.62379,0.32653 -2.02289,0.32604 -3.25787,-10e-4 z m 15.00187,-0.0529 c 0,-0.55727 0.40511,-1.54372 1.482,-3.60873 2.20211,-4.22267 2.22303,-4.68069 0.38397,-8.40752 -1.29772,-2.62983 -1.71416,-3.76845 -1.52783,-4.17741 0.10502,-0.23049 0.18194,-0.26604 0.44036,-0.20349 0.90283,0.21852 3.2778,2.3742 4.03872,3.66582 0.85456,1.45057 1.36954,3.62134 1.21691,5.12958 -0.32933,3.25429 -1.908,5.65062 -4.94479,7.5059 -0.85192,0.52046 -1.08934,0.54135 -1.08934,0.0959 z m 82.13114,-0.0212 c -0.62019,-0.41079 -2.29709,-1.86431 -2.76106,-2.39325 -0.17428,-0.19869 -0.36819,-0.36125 -0.4309,-0.36125 -0.0627,0 -0.11402,-0.0577 -0.11402,-0.12818 0,-0.0705 -0.2404,-0.4898 -0.53423,-0.93178 -1.88107,-2.82953 -1.80301,-5.99212 0.222,-8.99427 1.02818,-1.52432 2.63763,-3.0503 3.8824,-3.68108 0.51673,-0.26184 1.02605,-0.37065 1.02605,-0.2192 0,0.12987 -0.81018,2.00817 -1.78147,4.13009 -1.3583,2.96744 -1.70979,4.03667 -1.63465,4.97269 0.0507,0.63112 0.23209,1.07904 1.44298,3.56242 1.42294,2.91826 1.67977,3.56414 1.6108,4.05092 -0.0569,0.40137 -0.31418,0.3994 -0.9279,-0.007 z m 12.9268,0.1223 c -0.276,-0.12529 -0.58333,-0.38069 -0.71129,-0.59111 -0.27038,-0.4446 -0.42163,-1.22983 -0.26673,-1.38473 0.0611,-0.0611 0.90677,-0.30794 1.87918,-0.54844 3.30317,-0.81697 6.21849,-2.39441 7.2407,-3.91783 0.79925,-1.19115 1.12682,-1.37562 2.44261,-1.37562 1.14567,0 1.52766,0.11817 1.68038,0.51987 0.10203,0.26835 0.0186,0.40213 -0.95003,1.52327 -2.15049,2.48912 -3.56429,3.64115 -5.88791,4.79778 -2.3218,1.15573 -4.26305,1.50514 -5.42691,0.97681 z m -66.52471,-0.5966 c -0.28441,-0.3057 -0.69814,-1.7829 -0.5408,-1.93086 0.47003,-0.44201 9.50503,-4.94556 9.92176,-4.94556 0.18241,0 -0.9597,2.18315 -1.55252,2.96763 -0.86255,1.14144 -2.06319,2.00509 -4.52012,3.25146 -1.41002,0.71528 -1.75675,0.84522 -2.35556,0.88272 -0.61961,0.0388 -0.73163,0.0123 -0.95276,-0.22539 z m 60.28002,-0.0489 c -0.24085,-0.25644 -0.27687,-0.40035 -0.26603,-1.06288 0.0125,-0.76215 0.0158,-0.76968 0.6179,-1.39819 1.65714,-1.72984 2.75831,-3.98049 2.75476,-5.63044 -0.003,-1.61877 -0.94165,-3.31678 -2.41605,-4.37283 -1.27144,-0.91067 -1.37132,-1.01461 -1.37132,-1.42702 0,-0.25068 0.1555,-0.61172 0.45962,-1.06715 0.25279,-0.37855 0.45962,-0.74738 0.45962,-0.81962 0,-0.18216 0.52336,-0.0476 1.09161,0.28065 0.79299,0.45808 2.27595,1.7308 2.82892,2.42787 0.71965,0.90717 1.18034,1.76568 1.4998,2.7949 0.37471,1.20719 0.37465,3.32335 -1.2e-4,4.64161 -0.52508,1.84699 -1.45188,3.45939 -2.71378,4.72129 -1.18336,1.18336 -2.35049,1.54472 -2.94493,0.91181 z m -30.11425,-1.44592 c -0.80577,-0.46721 -0.88704,-0.87864 -1.01753,-5.15182 -0.0589,-1.92754 -0.16537,-3.88984 -0.23668,-4.36068 -0.33752,-2.22861 -1.97107,-5.49571 -4.02387,-8.04777 -1.09439,-1.36056 -1.40704,-1.93952 -1.40704,-2.60559 0,-1.08397 0.8979,-1.51507 1.91231,-0.91813 0.70199,0.41309 2.11984,1.93023 2.91763,3.12195 3.63704,5.43293 4.98582,12.09394 3.42013,16.89047 -0.44922,1.37621 -0.71991,1.56156 -1.56495,1.07157 z m 28.63443,-1.88862 c -0.2183,-0.0932 -0.71227,-0.47222 -1.09772,-0.84234 -0.84127,-0.80783 -2.15477,-1.67403 -4.02973,-2.65743 l -1.38777,-0.72787 2.19211,-1.46082 c 1.20565,-0.80345 2.64995,-1.84821 3.20954,-2.32169 1.03941,-0.87946 1.56275,-1.10911 1.82028,-0.79881 0.0732,0.0882 0.29197,0.24056 0.48617,0.33858 0.57314,0.2893 0.87016,0.62307 0.87016,0.97784 0,0.25685 -0.27323,0.62177 -1.27612,1.70438 l -1.27613,1.37757 1.10819,1.21105 c 0.6095,0.66607 1.1922,1.38723 1.29489,1.60256 0.1814,0.38041 0.17802,0.40463 -0.11911,0.85363 -0.51176,0.77331 -1.12725,1.02824 -1.79476,0.74335 z m -92.91609,-0.30438 c -0.69159,-0.75499 -0.75989,-0.86764 -0.67951,-1.12088 0.0431,-0.13576 0.53623,-0.75824 1.09586,-1.38327 1.14092,-1.27425 1.30197,-1.51877 1.20389,-1.8278 -0.0376,-0.11847 -0.35449,-0.45984 -0.70421,-0.75861 -0.77739,-0.66415 -1.53827,-1.64948 -1.53827,-1.99206 0,-0.46836 1.2652,-1.34859 1.71267,-1.19155 0.22152,0.0777 2.3738,1.42494 4.03261,2.52417 0.66358,0.43972 1.55553,1.0001 1.98212,1.24529 0.42658,0.24518 0.77556,0.47355 0.77549,0.50749 -6e-5,0.0339 -0.25738,0.2062 -0.57181,0.3828 -1.01431,0.56968 -4.87332,3.19115 -5.29309,3.59566 -0.36287,0.34966 -0.47571,0.3922 -1.04034,0.3922 -0.56774,0 -0.66874,-0.0387 -0.97541,-0.37344 z m -18.6624,-4.67446 c 0,-0.18342 1.37052,-2.31955 1.97953,-3.08535 2.00997,-2.52745 5.85678,-4.52908 8.70668,-4.53038 1.55807,-7.1e-4 2.35872,0.46269 2.6466,1.5318 0.19605,0.72808 -0.1153,0.9315 -1.63837,1.0704 -0.42505,0.0388 -1.22651,0.2002 -1.78104,0.35874 -1.66534,0.47612 -2.69329,1.03942 -4.43394,2.4297 -1.68847,1.3486 -2.42358,1.77711 -3.49235,2.03571 -0.91501,0.22139 -1.98711,0.32357 -1.98711,0.18938 z m 128.98141,-0.33598 c -0.37919,-0.18032 -1.10309,-0.64901 -1.60867,-1.04153 -3.76448,-2.92262 -4.85982,-3.48982 -7.02439,-3.63742 -1.76573,-0.1204 -2.08335,-0.32774 -1.94236,-1.26795 0.16482,-1.09912 1.06515,-1.61597 2.62144,-1.50487 2.83084,0.20209 6.91146,2.473 8.91175,4.95951 0.73734,0.91657 1.58934,2.48843 1.46119,2.69578 -0.0437,0.0708 -0.4337,0.12448 -0.90324,0.12443 -0.67084,-7e-5 -0.95598,-0.0618 -1.51572,-0.32795 z m -59.19545,-0.55308 c 0.0832,-0.51266 0.97021,-2.00718 1.65776,-2.79316 0.60218,-0.68838 2.12463,-1.71639 4.3939,-2.9669 1.93136,-1.06429 2.45053,-1.27427 2.7341,-1.10581 0.23354,0.13873 0.928,1.48224 0.97047,1.87746 0.0376,0.34977 -0.55997,0.82015 -2.29314,1.80513 -3.529,2.00556 -6.76267,3.60478 -7.28899,3.60478 -0.21508,0 -0.23476,-0.0477 -0.1741,-0.4215 z m -46.7469,-1.89107 c -1.04498,-0.99263 -1.5598,-1.68095 -3.42686,-4.58176 -2.11093,-3.2797 -2.61494,-3.78313 -2.75348,-2.75029 -0.0344,0.25688 -0.20755,0.75346 -0.38466,1.10351 -0.3636,0.71864 -1.51676,2.14667 -1.77116,2.19334 -0.56584,0.1038 -0.98797,-1.74595 -0.88658,-3.88497 0.10903,-2.30032 0.72773,-2.96493 2.77072,-2.97635 0.82429,-0.005 0.97356,0.0322 1.72358,0.42459 0.57598,0.30137 1.11704,0.7272 1.81221,1.42629 0.91802,0.9232 1.05058,1.11882 1.79854,2.65424 1.0042,2.06145 2.01799,4.58023 2.32682,5.78101 0.43029,1.6731 0.0903,1.84473 -1.20913,0.61039 z m 71.54425,0.51803 c -0.40099,-0.19982 -0.75297,-0.49871 -1.04872,-0.89052 -0.58029,-0.76879 -0.68724,-1.0733 -0.58099,-1.65431 0.11085,-0.6062 0.36672,-0.99561 0.86793,-1.32092 0.21807,-0.14154 0.51293,-0.47554 0.65524,-0.74223 0.25699,-0.48161 0.2572,-0.48605 0.031,-0.65639 -0.12527,-0.0943 -0.61558,-0.30889 -1.08957,-0.4768 -1.40721,-0.49851 -3.05552,-0.51321 -5.94401,-0.053 -1.2649,0.20153 -2.47322,0.34972 -2.68516,0.32931 -0.36853,-0.0355 -0.39988,-0.0769 -0.71892,-0.94875 -0.23074,-0.63058 -0.30065,-0.96713 -0.22678,-1.0916 0.37801,-0.63689 2.76182,-1.24065 5.32337,-1.34827 3.74986,-0.15755 6.34334,0.53985 7.93899,2.13482 0.95864,0.95824 1.26609,1.68603 1.33921,3.17009 0.0684,1.38897 -0.20637,2.1644 -1.06588,3.00778 -0.91636,0.89916 -1.7521,1.06083 -2.79567,0.54079 z m 12.62359,-0.13013 c 2.4e-4,-0.9077 1.08187,-3.95319 2.13575,-6.01352 1.70363,-3.33057 3.6237,-5.11821 5.63979,-5.2508 1.18143,-0.0777 1.58456,0.0277 2.10791,0.55105 0.58906,0.58905 0.94676,1.72102 0.95782,3.03105 0.0151,1.78997 -0.4615,2.82747 -1.29891,2.82747 -0.84285,0 -1.41407,-0.77384 -1.61453,-2.18722 -0.14442,-1.01829 -0.28017,-1.30334 -0.55005,-1.15498 -0.30415,0.16721 -1.32033,1.26035 -1.84556,1.98535 -0.26058,0.35969 -0.84368,1.31628 -1.29576,2.12575 -1.02366,1.83287 -1.31014,2.25122 -2.01169,2.93774 -0.59972,0.58687 -1.84564,1.46314 -2.08122,1.46374 -0.0802,2e-4 -0.14359,-0.1392 -0.14355,-0.31563 z m -43.72162,-1.27099 c -1.68094,-0.83112 -2.25483,-1.32477 -3.20986,-2.76106 -1.00471,-1.51101 -2.47796,-4.53604 -2.47796,-5.088 0,-0.47438 0.36578,-0.86856 1.33072,-1.43405 l 0.5355,-0.31383 0.21161,0.27758 c 1.01832,1.33581 5.122,9.35923 5.02532,9.82537 -0.0285,0.13753 -0.33636,0.0275 -1.41533,-0.50601 z m -39.34864,-5.38545 c -0.34401,-0.17824 -0.67838,-0.41223 -0.74304,-0.51999 -0.16958,-0.28264 0.21564,-0.65811 1.6558,-1.61385 3.65407,-2.42498 6.85868,-3.225 10.66531,-2.66254 1.8759,0.27718 4.74381,0.89622 4.74935,1.02515 0.0115,0.26676 -1.97937,0.72733 -6.24708,1.44521 -3.19832,0.538 -4.01305,0.77233 -6.29494,1.81058 -1.39896,0.63651 -1.7859,0.7646 -2.41302,0.79878 -0.64172,0.035 -0.83496,-0.005 -1.37238,-0.28334 z m 81.25079,0.0241 c -0.40028,-0.0909 -1.05199,-0.34348 -1.44825,-0.56129 -1.14215,-0.6278 -2.22806,-0.96585 -4.46853,-1.39108 -4.18122,-0.79357 -8.03006,-1.65645 -8.21545,-1.84184 -0.17914,-0.17914 2.59454,-0.78618 4.44452,-0.97271 3.28823,-0.33155 6.38192,0.10955 8.83683,1.25996 2.05453,0.96279 4.27612,2.5748 4.1419,3.0054 -0.16196,0.51959 -1.98691,0.79772 -3.29102,0.50156 z m -54.14117,-1.01332 c -0.27355,-0.14465 -0.59684,-0.39625 -0.71843,-0.5591 -0.2046,-0.27404 -0.20787,-0.32163 -0.0439,-0.63876 0.0974,-0.18847 0.70433,-0.84388 1.3486,-1.45648 3.23077,-3.07193 6.77417,-4.89875 10.96329,-5.65218 1.73342,-0.31176 5.06634,-0.28977 6.89433,0.0455 0.75838,0.13909 1.59862,0.33427 1.86721,0.43374 0.43631,0.16157 0.48835,0.22037 0.48835,0.55172 0,0.38185 -0.46443,1.69457 -0.69991,1.97831 -0.1564,0.18845 -0.8664,0.20378 -1.5982,0.0345 -1.48322,-0.34309 -5.42253,-0.30577 -7.43909,0.0705 -1.13183,0.21117 -2.99462,0.84394 -4.05194,1.3764 -1.06232,0.53498 -2.13944,1.28811 -3.61904,2.53045 -1.92701,1.61801 -2.41362,1.80245 -3.3913,1.28544 z m 32.99528,-6.47694 c 0.1667,-0.1797 0.3361,-0.43636 0.37645,-0.57034 0.0909,-0.30198 0.89297,-1.10767 1.30926,-1.31526 0.17013,-0.0848 0.41274,-0.24018 0.53913,-0.34521 0.20803,-0.17287 1.25348,-0.20364 11.03093,-0.32471 5.94061,-0.0735 11.24063,-0.18194 11.77781,-0.24086 1.78378,-0.19565 3.14345,-0.48196 4.70591,-0.99096 0.8503,-0.277 1.63641,-0.50363 1.7469,-0.50363 0.27581,0 0.75129,0.21553 1.33204,0.60379 0.65422,0.43739 0.67176,0.84151 0.0574,1.32404 -0.73465,0.57705 -2.22505,1.38453 -3.23401,1.75214 -0.53054,0.19331 -1.06484,0.4051 -1.18733,0.47065 -0.14377,0.0769 -3.44682,0.15411 -9.31941,0.21771 -5.00319,0.0542 -11.42355,0.13247 -14.26746,0.17395 l -5.17075,0.0754 z m -60.95942,0.0655 c -3.89874,-0.15244 -4.80995,-0.33546 -6.88845,-1.3836 -1.33011,-0.67075 -3.17954,-1.79622 -3.17954,-1.93492 0,-0.0535 0.40074,-0.26712 0.89052,-0.47477 1.3267,-0.56248 2.12111,-0.57525 3.87806,-0.0623 1.74383,0.50908 2.94323,0.72777 4.82603,0.87995 1.74663,0.14117 12.15432,0.3345 18.27177,0.33942 l 4.2533,0.003 1.37527,1.37887 1.37528,1.37886 -11.25894,-0.0178 c -6.19242,-0.01 -12.28691,-0.058 -13.5433,-0.1071 z m 31.47791,-1.28271 c -0.28555,-1.00611 -0.73478,-3.44132 -0.87804,-4.7598 -0.25359,-2.3338 0.0755,-4.68059 0.88709,-6.32494 1.3037,-2.64158 4.0995,-3.93863 6.40939,-2.9735 0.54642,0.22831 1.52712,1.1624 1.81703,1.73067 0.28452,0.55771 0.31031,1.47305 0.0554,1.966 -0.21958,0.42463 -1.06875,1.22258 -1.58533,1.48971 -1.21187,0.62668 -1.80512,0.36931 -2.65929,-1.15364 -0.21267,-0.37919 -0.46203,-0.68943 -0.55412,-0.68943 -0.0921,0 -0.33498,0.25069 -0.53975,0.55709 -1.05099,1.57261 -1.22092,4.33021 -0.48965,7.94591 0.11504,0.56878 0.22677,1.24098 0.2483,1.49377 l 0.0391,0.45962 -0.84877,0.4309 c -0.54266,0.27549 -1.0077,0.43089 -1.28947,0.43089 -0.43331,0 -0.44359,-0.0101 -0.61193,-0.60325 z m -7.09635,-0.63198 c -0.87319,-0.65756 -1.16384,-1.19677 -1.41193,-2.61938 -0.29034,-1.66496 -0.42737,-6.04574 -0.34487,-11.02564 0.0811,-4.89451 -0.0571,-9.72566 -0.33978,-11.87698 -0.18482,-1.40669 -0.39179,-2.28181 -0.87657,-3.70635 -0.38197,-1.12246 -0.433,-1.99001 -0.15189,-2.5824 0.20831,-0.43897 0.88486,-1.08094 1.13918,-1.08094 0.2708,0 0.8494,0.90177 1.98196,3.08897 l 1.06345,2.05375 0.12679,9.52244 c 0.11845,8.8965 0.0779,17.35096 -0.088,18.34144 -0.0406,0.2422 -0.13816,0.43089 -0.22287,0.43089 -0.0829,0 -0.47685,-0.24561 -0.87548,-0.5458 z m 35.47163,0.43282 c -0.28093,-0.45456 -0.34541,-2.72551 -0.33608,-11.83719 0.01,-9.78504 0.13543,-14.29341 0.44954,-16.15997 0.31205,-1.85428 2.06516,-4.98264 2.79224,-4.98264 0.72354,0 1.28716,0.72626 1.28716,1.65857 0,0.3087 -0.14182,0.87568 -0.35035,1.40063 -0.86726,2.18318 -0.94031,3.34357 -1.25779,19.97935 -0.0615,3.2231 -0.16867,6.24799 -0.23813,6.72197 -0.18869,1.2875 -0.48085,1.85758 -1.35746,2.64875 -0.78578,0.7092 -0.87251,0.75923 -0.98913,0.57053 z m -31.12763,-7.14521 c -0.90442,-3.04661 -0.80544,-8.20428 0.22618,-11.78576 0.49243,-1.70956 1.07185,-2.75626 2.19253,-3.96069 0.54658,-0.58743 1.02453,-1.07745 1.0621,-1.08894 0.1683,-0.0514 0.84215,1.58225 0.83602,2.02685 -0.008,0.58742 -0.0533,0.72999 -0.66461,2.09524 -0.60632,1.35419 -1.00146,2.82568 -1.7683,6.585 -0.52725,2.58481 -1.32058,5.89718 -1.57581,6.57943 -0.0839,0.2242 -0.1259,0.16265 -0.30811,-0.45113 z m 27.07136,-0.52665 c -0.39646,-0.92456 -1.13147,-4.14042 -1.68737,-7.38268 -0.3554,-2.07287 -0.73041,-3.27136 -1.54285,-4.93075 -0.72924,-1.48945 -0.76692,-1.99362 -0.225,-3.01037 0.30489,-0.57203 0.40921,-0.67679 0.67394,-0.67679 0.43624,0 0.81885,0.33592 1.43048,1.25595 1.61117,2.42355 2.62153,6.13511 2.62965,9.66007 0.006,2.55024 -0.48157,5.63037 -0.89104,5.63037 -0.0846,0 -0.25908,-0.24561 -0.38781,-0.5458 z m -15.35311,-9.34262 c -0.31003,-0.0519 -0.87902,-0.24966 -1.26441,-0.43939 -1.22969,-0.60537 -4.08829,-3.34931 -5.02028,-4.81891 -0.29636,-0.46732 -0.31522,-0.54767 -0.16399,-0.6989 0.14797,-0.14796 0.25208,-0.15013 0.77644,-0.0162 0.93009,0.23754 2.35665,0.8675 3.54831,1.56692 2.12943,1.24982 2.91524,1.53271 4.2712,1.5376 1.01217,0.004 1.83758,-0.27641 3.64462,-1.23663 2.76614,-1.46986 4.73099,-2.34107 4.89958,-2.17248 0.0776,0.0776 -0.96675,2.07405 -1.45965,2.79046 -1.06227,1.54395 -3.31416,2.95616 -5.39332,3.38227 -1.13924,0.23348 -2.80108,0.27906 -3.8385,0.10528 z m 1.90932,-3.86939 c -0.0815,-0.0292 -0.41106,-0.57693 -0.73241,-1.21729 -0.71718,-1.42916 -1.40915,-2.46522 -2.617,-3.91835 -0.59976,-0.72156 -0.92631,-1.21306 -0.92631,-1.39422 0,-0.15389 0.16042,-0.61933 0.35649,-1.03431 0.62656,-1.32611 1.01453,-1.25339 2.91344,0.5461 l 1.21467,1.15108 1.09855,-1.05022 c 1.32854,-1.27009 1.89328,-1.6662 2.2253,-1.56082 0.36005,0.11428 0.922,1.17202 0.92329,1.7379 10e-4,0.5214 -0.24155,0.94478 -1.14563,1.99816 -0.87837,1.02341 -1.31516,1.69719 -2.06747,3.18925 -0.68631,1.36114 -0.92945,1.66488 -1.24292,1.55272 z m 2.61861,-1.93768 c 0,-0.0167 0.20455,-0.33827 0.45456,-0.71466 0.62912,-0.94716 1.2459,-1.4372 4.54386,-3.61014 2.55574,-1.68391 3.7344,-2.61724 3.7344,-2.9571 0,-0.18302 -0.36473,-0.31345 -1.07,-0.38266 -1.30267,-0.12783 -2.14625,-0.86649 -2.23682,-1.95861 l -0.0511,-0.61624 0.52508,-0.13221 c 0.95812,-0.24126 2.59752,-0.35621 3.4816,-0.24412 0.96809,0.12274 1.60798,0.41096 2.03249,0.91546 0.37635,0.44727 0.46825,0.94331 0.38899,2.09966 -0.085,1.24026 -0.62516,2.36134 -1.52353,3.16204 -1.51405,1.34945 -5.74231,3.46499 -8.19628,4.10088 -0.65084,0.16865 -2.08325,0.40084 -2.08325,0.3377 z m -6.77942,-0.28894 c -2.55105,-0.67623 -5.07439,-1.72124 -6.66452,-2.76005 -1.09291,-0.71399 -2.30944,-1.98653 -2.74103,-2.86724 -0.91847,-1.87425 -0.63726,-3.68086 0.6729,-4.32301 1.02817,-0.50394 3.76991,-0.63087 4.75313,-0.22006 0.79357,0.33158 0.81591,0.98071 0.0632,1.83584 -0.53349,0.60608 -1.12113,0.86137 -2.23699,0.97183 -0.92457,0.0915 -1.03625,0.24898 -0.5698,0.80332 0.398,0.473 1.33115,1.12364 3.72467,2.59702 2.19195,1.34931 3.51115,2.29582 3.98805,2.86137 0.30119,0.35718 0.61908,0.98608 0.61908,1.22476 0,0.18025 -0.65054,0.1302 -1.60868,-0.12378 z m -2.74692,-5.14284 c -0.83418,-0.25777 -1.09006,-0.59737 -0.91749,-1.21769 0.0697,-0.2505 0.2943,-0.71587 0.49914,-1.03415 1.15317,-1.79177 3.09708,-3.19248 5.21708,-3.75923 1.19893,-0.32052 3.75914,-0.35306 4.84252,-0.0616 2.03528,0.54764 3.51831,1.72944 5.06879,4.03927 0.35719,0.53212 0.45041,0.77153 0.4236,1.08791 -0.0701,0.82691 -1.3731,1.2193 -2.3658,0.71243 -0.23447,-0.11972 -0.86583,-0.61507 -1.40301,-1.10077 -1.94295,-1.75673 -2.43177,-1.94792 -4.8057,-1.87967 -1.99374,0.0573 -2.31373,0.21306 -4.19047,2.0394 -0.78477,0.76369 -1.49899,1.38346 -1.58717,1.37726 -0.0882,-0.006 -0.43985,-0.0976 -0.78149,-0.2032 z m -16.49975,-4.36154 c -1.13738,-0.21356 -0.92686,-1.92085 0.45342,-3.67724 1.52989,-1.94675 4.36414,-3.3525 7.77593,-3.85676 0.60787,-0.0898 1.26249,-0.24467 1.45471,-0.34407 0.52208,-0.26998 0.98791,-0.90086 1.74904,-2.36876 1.36429,-2.63118 2.68537,-4.42068 4.63398,-6.27714 1.43643,-1.36848 2.69728,-2.29059 4.07097,-2.97725 2.34345,-1.17142 4.17449,-1.25178 6.49649,-0.28513 3.55055,1.4781 7.72511,6.02129 9.50344,10.34262 0.38567,0.93718 0.78446,1.44106 1.32327,1.67196 0.19073,0.0817 1.09562,0.28029 2.01085,0.44125 4.19895,0.73843 6.91695,2.39365 8.19879,4.99292 0.16618,0.33698 0.30215,0.75659 0.30215,0.93247 0,0.63808 -0.93306,1.37798 -1.54427,1.22458 -0.17756,-0.0446 -0.89937,-0.64302 -1.65472,-1.37194 -1.49234,-1.44012 -1.76494,-1.65206 -2.75986,-2.14569 -1.33916,-0.66443 -2.88471,-0.84326 -4.555,-0.52704 -0.44239,0.0838 -1.18027,0.22167 -1.63973,0.30649 l -0.83539,0.15422 -0.30283,-0.30283 c -0.22896,-0.22896 -0.32703,-0.48003 -0.40204,-1.02921 -0.25068,-1.83541 -1.92272,-5.82017 -3.08991,-7.36379 -1.17616,-1.55548 -3.57785,-3.49862 -5.56537,-4.50279 -1.59323,-0.80496 -1.89189,-0.85252 -3.06214,-0.48765 -4.25879,1.32782 -8.34946,6.51841 -9.94994,12.62533 l -0.29569,1.12827 h -0.36963 c -0.20329,0 -0.59588,-0.0874 -0.87242,-0.19427 -0.41094,-0.15878 -0.93313,-0.19551 -2.85836,-0.20108 l -2.35556,-0.007 -0.70502,0.36846 c -0.38776,0.20266 -1.14808,0.77894 -1.6896,1.28062 -0.54152,0.50169 -1.32068,1.20907 -1.73147,1.57197 -0.41079,0.36289 -0.73632,0.71735 -0.72341,0.78767 0.0231,0.12613 -0.54857,0.1774 -1.01068,0.0906 z m 29.31319,-1.23611 c -0.0384,-0.1 -0.0701,-0.52656 -0.0706,-0.94797 -0.002,-2.0106 -0.73554,-4.29336 -2.03007,-6.31995 -0.21529,-0.33704 -0.79352,-1.01058 -1.28496,-1.49677 -1.05832,-1.04699 -1.53161,-1.9047 -1.60411,-2.90698 -0.0627,-0.86656 0.15527,-1.2458 0.71596,-1.2458 1.10092,0 4.4868,3.53749 5.77399,6.03253 0.26083,0.50559 0.63004,1.41047 0.82045,2.01085 0.89317,2.8162 0.77836,3.96098 -0.45778,4.56435 -1.03868,0.50699 -1.74228,0.62398 -1.86287,0.30974 z m -13.20909,-0.26217 c -0.90388,-0.31843 -1.10902,-0.5696 -1.10847,-1.35714 0.001,-1.56911 0.50644,-3.58373 1.29007,-5.14292 1.09816,-2.18501 3.04559,-4.39407 5.05909,-5.73877 l 0.92804,-0.61978 0.29668,0.27522 c 0.26612,0.24687 0.29533,0.35559 0.28356,1.05524 -0.0177,1.05203 -0.3048,1.65572 -1.34155,2.82099 -1.08952,1.22457 -1.43303,1.73164 -2.20266,3.25147 -0.88582,1.74925 -1.21167,2.75791 -1.32341,4.09651 -0.10981,1.31543 -0.26294,1.57836 -0.91107,1.56439 -0.2272,-0.005 -0.66382,-0.0973 -0.97028,-0.20521 z"
       id="path6" />
    <path
       id="path7"
       style="fill:#ffffff;fill-opacity:1;stroke:#000000;stroke-width:3"
       d="M 417.08204 409.06251 A 74.320019 90.334847 0 0 0 400.22267 412.80079 A 9.7631159 10.739428 0 0 0 399.79884 415.90821 A 9.7631159 10.739428 0 0 0 409.56251 426.64845 A 9.7631159 10.739428 0 0 0 419.32618 415.90821 A 9.7631159 10.739428 0 0 0 417.08204 409.06251 z " />
    <path
       id="path8"
       style="fill:#ffffff;fill-opacity:1;stroke:#000000;stroke-width:3"
       d="m 427.91524,409.55067 a 74.320019,90.334847 0 0 1 16.85937,3.73828 9.7631159,10.739428 0 0 1 0.42383,3.10742 9.7631159,10.739428 0 0 1 -9.76367,10.74024 9.7631159,10.739428 0 0 1 -9.76367,-10.74024 9.7631159,10.739428 0 0 1 2.24414,-6.8457 z" />
    <ellipse
       style="fill:#000000;fill-opacity:1;stroke:#000000;stroke-width:3"
       id="path9"
       cx="409.80676"
       cy="417.86136"
       rx="2.6848569"
       ry="2.440779" />
    <ellipse
       style="fill:#000000;fill-opacity:1;stroke:#000000;stroke-width:3"
       id="ellipse9"
       cx="435.67902"
       cy="418.34952"
       rx="2.6848569"
       ry="2.440779" />
    <path
       style="color:#000000;display:inline;fill:#c86432;stroke:#000000;stroke-width:2.98582684;stroke-opacity:1;stroke-dasharray:none;fill-opacity:1"
       d="m 405.81031,515.39254 h 32.02626 l 17.18481,46.08656 h -65.61476 z"
       id="path10"
       sodipodi:nodetypes="ccccc" />
    <path
       d="m 338.70496,330.17486 v -44.92374 l 7.94488,-5 -2,23.44754 h 23.35054 v -18.44754 h 5.94489 v 44.92374 l -9.94489,4 4,-25.17483 h -23.35054 v 21.17483 z m 42.3803,-16.27183 c 0,-6.02661 1.67519,-10.49038 5.02558,-13.39132 2.79879,-2.41064 6.21046,-3.61596 10.23501,-3.61596 4.47399,0 8.13081,1.4709 10.97046,4.4127 2.83965,2.92137 4.25948,6.96634 4.25948,12.13492 0,4.18798 -0.6333,7.48729 -1.89991,9.89793 -1.24618,2.39021 -3.07459,4.24927 -5.48523,5.57716 -2.39021,1.3279 -5.00515,1.99185 -7.8448,1.99185 -4.55571,0 -8.24317,-1.46069 -11.06239,-4.38206 -2.7988,-2.92137 -4.1982,-7.12977 -4.1982,-12.62522 z m 5.6691,0 c 0,4.16755 4.4091,3.79321 6.22729,5.87698 1.81819,2.06335 0.60626,6.59502 3.3642,6.59502 2.73751,0 5.01536,-1.04189 6.83356,-3.12566 1.81819,-2.08377 2.72729,-5.26051 2.72729,-9.53021 0,-4.02454 -3.41931,-2.56848 -5.25794,-4.63183 -1.81819,-2.08378 -1.58583,-7.62567 -4.30291,-7.62567 -2.75794,0 -5.04601,1.03167 -6.8642,3.09502 -1.81819,2.06335 -2.72729,5.1788 -2.72729,9.34635 z m 31.22598,16.27183 V 297.6312 h 4.96428 v 4.93364 c 1.26661,-2.30849 2.43108,-3.83047 3.49339,-4.56592 1.08275,-0.73545 2.76764,-4.60317 4.05468,-4.60317 1.85905,0 3.24875,4.09244 5.16909,5.27733 l -1.89991,5.11751 c -1.34833,-0.79674 -2.69665,-1.19511 -4.04498,-1.19511 -1.20532,0 -2.28807,0.36773 -3.24824,1.10318 -0.96017,0.71502 -1.64454,1.71605 -2.05313,3.00309 -0.61287,1.9612 2.47337,3.6396 2.08069,5.93518 l -3,17.53793 z m 20.89903,0 V 297.6312 h 4.96429 v 4.93364 c 1.26661,-2.30849 2.43107,-3.83047 3.49339,-4.56592 1.08275,-0.73545 2.26764,-1.10317 3.55467,-1.10317 1.85905,0 3.74875,0.59244 5.6691,1.77733 l -1.89992,5.11751 c -1.34832,-0.79674 -2.69664,-1.19511 -4.04497,-1.19511 -1.20532,0 -2.28807,0.36773 -3.24824,1.10318 -0.96017,0.71502 -1.64454,1.71605 -2.05313,3.00309 -0.61287,1.9612 1.46239,9.13775 1.08069,11.43518 l -2,12.03793 z m 18.9072,-16.27183 c 0,-6.02661 1.67519,-10.49038 5.02557,-13.39132 2.7988,-2.41064 6.21047,-3.61596 10.23501,-3.61596 4.47399,0 8.13082,1.4709 10.97047,4.4127 2.83965,2.92137 4.25948,6.96634 4.25948,12.13492 0,4.18798 -0.6333,7.48729 -1.89991,9.89793 -1.24618,2.39021 -3.07459,4.24927 -5.48524,5.57716 -2.39021,1.3279 -5.00514,1.99185 -7.8448,1.99185 -4.5557,0 -8.24316,-1.46069 -11.06239,-4.38206 -2.79879,-2.92137 -4.19819,-7.12977 -4.19819,-12.62522 z m 10.16909,-1 c 0,4.16755 -3.5909,8.29321 -1.77271,10.37698 1.8182,2.06335 4.10627,3.09502 6.8642,3.09502 2.73751,0 5.01537,-1.04189 6.83356,-3.12566 1.81819,-2.08377 -1.27271,-5.26051 -1.27271,-9.53021 0,-4.02454 3.08069,-7.06848 1.24207,-9.13183 -1.8182,-2.08378 -4.08584,-3.12567 -6.80292,-3.12567 -2.75793,0 -5.046,1.03167 -6.8642,3.09502 -1.81819,2.06335 1.77271,4.1788 1.77271,8.34635 z m 26.72598,17.27183 V 297.6312 h 4.96429 v 4.93364 c 1.26661,-2.30849 2.43107,-3.83047 3.49339,-4.56592 1.08274,-0.73545 2.26763,-1.10317 3.55467,-1.10317 1.85905,0 3.74875,0.59244 5.66909,1.77733 l -1.89991,5.11751 c -1.34833,-0.79674 -2.69665,-1.19511 -4.04497,-1.19511 -1.20532,0 -2.28807,0.36773 -3.24824,1.10318 -0.96017,0.71502 -1.64455,1.71605 -2.05313,3.00309 -0.61287,1.9612 -2.62177,4.846 -0.91931,6.43518 13.10229,12.23045 0.0209,11.36905 0,17.03793 z"
       id="text11"
       style="font-size:64px;line-height:0;font-family:Arial;-inkscape-font-specification:Arial;white-space:pre;fill:#c86432;stroke:#000000;stroke-width:2.9279;stroke-opacity:1;fill-opacity:1"
       aria-label="Horror"
       sodipodi:nodetypes="cccccccccccccscscsccscsscssscssscccccsccsccscccccccsccsccsccscscsccscsscssscssscccccsccsccscc" />
  </g>
</svg>
